<svg width="780" height="380" viewBox="0 0 780 380" xmlns="http://www.w3.org/2000/svg">
  <defs>
    <linearGradient id="bg" x1="0" y1="0" x2="1" y2="1">
      <stop offset="0%" stop-color="#08070c"/>
      <stop offset="100%" stop-color="#12081f"/>
    </linearGradient>
    <linearGradient id="bar" x1="0" y1="0" x2="1" y2="0">
      <stop offset="0%" stop-color="#39FF88"/>
      <stop offset="100%" stop-color="#8B5CF6"/>
    </linearGradient>
    <filter id="glow" x="-50%" y="-50%" width="200%" height="200%">
      <feGaussianBlur stdDeviation="4" result="blur"/>
      <feMerge>
        <feMergeNode in="blur"/>
        <feMergeNode in="SourceGraphic"/>
      </feMerge>
    </filter>
  </defs>
<rect x="1" y="1" width="778" height="378" rx="14" fill="url(#bg)" stroke="#39FF88" stroke-opacity="0.22"/>
  <rect x="0" y="0" width="780" height="40" rx="14" fill="#0d0b14"/>
  <rect x="0" y="26" width="780" height="14" fill="#0d0b14"/>
  <circle cx="26" cy="20" r="6" fill="#FF5F56"/>
  <circle cx="46" cy="20" r="6" fill="#FFBD2E"/>
  <circle cx="66" cy="20" r="6" fill="#27C93F"/>
  <text x="390.0" y="25" text-anchor="middle" font-family="Consolas, 'Courier New', monospace" font-size="13" fill="#6b7280">achievements.log</text>
<path d="M14,36 L14,14 L36,14" stroke="#8B5CF6" stroke-width="2" fill="none" opacity="0.55"/>
<path d="M766,36 L766,14 L744,14" stroke="#8B5CF6" stroke-width="2" fill="none" opacity="0.55"/>
<path d="M14,344 L14,366 L36,366" stroke="#8B5CF6" stroke-width="2" fill="none" opacity="0.55"/>
<path d="M766,344 L766,366 L744,366" stroke="#8B5CF6" stroke-width="2" fill="none" opacity="0.55"/>
<text x="40" y="80" font-family="Consolas, monospace" font-size="18" font-weight="bold" fill="#39FF88">0x05 // ACHIEVEMENTS</text><line x1="40" y1="94" x2="740" y2="94" stroke="#39FF88" stroke-opacity="0.25"/><rect x="40" y="106" width="4" height="26" fill="#39FF88" filter="url(#glow)"/><text x="56" y="124" font-family="Consolas, monospace" font-size="12.5" font-weight="bold" fill="#39FF88">[TryHackMe]</text><text x="200" y="124" font-family="Consolas, monospace" font-size="12" fill="#dcd6e8">Top 10% global rank : 65+ rooms : active since Nov 2023</text><rect x="40" y="156" width="4" height="26" fill="#39FF88" filter="url(#glow)"/><text x="56" y="174" font-family="Consolas, monospace" font-size="12.5" font-weight="bold" fill="#39FF88">[HackerOne]</text><text x="200" y="174" font-family="Consolas, monospace" font-size="12" fill="#dcd6e8">Independent researcher : active since Sep 2024</text><rect x="40" y="206" width="4" height="26" fill="#39FF88" filter="url(#glow)"/><text x="56" y="224" font-family="Consolas, monospace" font-size="12.5" font-weight="bold" fill="#39FF88">[CLLMSE]</text><text x="200" y="224" font-family="Consolas, monospace" font-size="12" fill="#dcd6e8">150 assessment questions + 10 hands-on labs, AI app attacks</text><rect x="40" y="256" width="4" height="26" fill="#39FF88" filter="url(#glow)"/><text x="56" y="274" font-family="Consolas, monospace" font-size="12.5" font-weight="bold" fill="#39FF88">[AD Lab]</text><text x="200" y="274" font-family="Consolas, monospace" font-size="12" fill="#dcd6e8">100% detection coverage across all 3 simulated ATT&CK scenarios</text><rect x="40" y="306" width="4" height="26" fill="#39FF88" filter="url(#glow)"/><text x="56" y="324" font-family="Consolas, monospace" font-size="12.5" font-weight="bold" fill="#39FF88">[AWAP-AI]</text><text x="200" y="324" font-family="Consolas, monospace" font-size="12" fill="#dcd6e8">SQLi / XSS / IDOR / Broken Auth confirmed on Juice Shop + DVWA</text></svg>