<svg width="780" height="430" viewBox="0 0 780 430" xmlns="http://www.w3.org/2000/svg">
  <defs>
    <linearGradient id="bg" x1="0" y1="0" x2="1" y2="1">
      <stop offset="0%" stop-color="#08070c"/>
      <stop offset="100%" stop-color="#12081f"/>
    </linearGradient>
    <linearGradient id="bar" x1="0" y1="0" x2="1" y2="0">
      <stop offset="0%" stop-color="#39FF88"/>
      <stop offset="100%" stop-color="#8B5CF6"/>
    </linearGradient>
    <filter id="glow" x="-50%" y="-50%" width="200%" height="200%">
      <feGaussianBlur stdDeviation="4" result="blur"/>
      <feMerge>
        <feMergeNode in="blur"/>
        <feMergeNode in="SourceGraphic"/>
      </feMerge>
    </filter>
  </defs>
<rect x="1" y="1" width="778" height="428" rx="14" fill="url(#bg)" stroke="#39FF88" stroke-opacity="0.22"/>
  <rect x="0" y="0" width="780" height="40" rx="14" fill="#0d0b14"/>
  <rect x="0" y="26" width="780" height="14" fill="#0d0b14"/>
  <circle cx="26" cy="20" r="6" fill="#FF5F56"/>
  <circle cx="46" cy="20" r="6" fill="#FFBD2E"/>
  <circle cx="66" cy="20" r="6" fill="#27C93F"/>
  <text x="390.0" y="25" text-anchor="middle" font-family="Consolas, 'Courier New', monospace" font-size="13" fill="#6b7280">ai-security-matrix.sh</text>
<path d="M14,36 L14,14 L36,14" stroke="#8B5CF6" stroke-width="2" fill="none" opacity="0.55"/>
<path d="M766,36 L766,14 L744,14" stroke="#8B5CF6" stroke-width="2" fill="none" opacity="0.55"/>
<path d="M14,394 L14,416 L36,416" stroke="#8B5CF6" stroke-width="2" fill="none" opacity="0.55"/>
<path d="M766,394 L766,416 L744,416" stroke="#8B5CF6" stroke-width="2" fill="none" opacity="0.55"/>
<text x="40" y="80" font-family="Consolas, monospace" font-size="18" font-weight="bold" fill="#39FF88">0x02 // AI-LLM SECURITY MATRIX</text><line x1="40" y1="94" x2="740" y2="94" stroke="#39FF88" stroke-opacity="0.25"/><text x="40" y="127" font-family="Consolas, monospace" font-size="12.5" fill="#A78BFA">prompt_injection</text><rect x="260" y="114" width="340" height="10" rx="5" fill="#1a1625"/><rect x="260" y="114" width="272.0" height="10" rx="5" fill="url(#bar)" filter="url(#glow)"/><text x="614" y="127" font-family="Consolas, monospace" font-size="12" fill="#39FF88">80%</text><text x="40" y="144" font-family="Consolas, monospace" font-size="10.5" fill="#6b7280">direct & indirect vector ID + mitigation (CLLMSE)</text><text x="40" y="177" font-family="Consolas, monospace" font-size="12.5" fill="#A78BFA">rag_security</text><rect x="260" y="164" width="340" height="10" rx="5" fill="#1a1625"/><rect x="260" y="164" width="272.0" height="10" rx="5" fill="url(#bar)" filter="url(#glow)"/><text x="614" y="177" font-family="Consolas, monospace" font-size="12" fill="#39FF88">80%</text><text x="40" y="194" font-family="Consolas, monospace" font-size="10.5" fill="#6b7280">retrieval pipeline hardening vs poisoning attacks</text><text x="40" y="227" font-family="Consolas, monospace" font-size="12.5" fill="#A78BFA">ai_agent_security</text><rect x="260" y="214" width="340" height="10" rx="5" fill="#1a1625"/><rect x="260" y="214" width="204.0" height="10" rx="5" fill="url(#bar)" filter="url(#glow)"/><text x="614" y="227" font-family="Consolas, monospace" font-size="12" fill="#39FF88">60%</text><text x="40" y="244" font-family="Consolas, monospace" font-size="10.5" fill="#6b7280">threat modeling autonomous tool-use chains</text><text x="40" y="277" font-family="Consolas, monospace" font-size="12.5" fill="#A78BFA">mcp_security</text><rect x="260" y="264" width="340" height="10" rx="5" fill="#1a1625"/><rect x="260" y="264" width="204.0" height="10" rx="5" fill="url(#bar)" filter="url(#glow)"/><text x="614" y="277" font-family="Consolas, monospace" font-size="12" fill="#39FF88">60%</text><text x="40" y="294" font-family="Consolas, monospace" font-size="10.5" fill="#6b7280">Model Context Protocol attack-surface analysis</text><text x="40" y="327" font-family="Consolas, monospace" font-size="12.5" fill="#A78BFA">owasp_llm_top10</text><rect x="260" y="314" width="340" height="10" rx="5" fill="#1a1625"/><rect x="260" y="314" width="272.0" height="10" rx="5" fill="url(#bar)" filter="url(#glow)"/><text x="614" y="327" font-family="Consolas, monospace" font-size="12" fill="#39FF88">80%</text><text x="40" y="344" font-family="Consolas, monospace" font-size="10.5" fill="#6b7280">applied coverage, 2025 risk categories</text><text x="40" y="377" font-family="Consolas, monospace" font-size="12.5" fill="#A78BFA">ai_driven_triage</text><rect x="260" y="364" width="340" height="10" rx="5" fill="#1a1625"/><rect x="260" y="364" width="340.0" height="10" rx="5" fill="url(#bar)" filter="url(#glow)"/><text x="614" y="377" font-family="Consolas, monospace" font-size="12" fill="#39FF88">100%</text><text x="40" y="394" font-family="Consolas, monospace" font-size="10.5" fill="#6b7280">shipped inside AWAP-AI live verification pipeline</text></svg>