<svg width="780" height="400" viewBox="0 0 780 400" xmlns="http://www.w3.org/2000/svg">
  <defs>
    <linearGradient id="bg" x1="0" y1="0" x2="1" y2="1">
      <stop offset="0%" stop-color="#08070c"/>
      <stop offset="100%" stop-color="#12081f"/>
    </linearGradient>
    <linearGradient id="bar" x1="0" y1="0" x2="1" y2="0">
      <stop offset="0%" stop-color="#39FF88"/>
      <stop offset="100%" stop-color="#8B5CF6"/>
    </linearGradient>
    <filter id="glow" x="-50%" y="-50%" width="200%" height="200%">
      <feGaussianBlur stdDeviation="4" result="blur"/>
      <feMerge>
        <feMergeNode in="blur"/>
        <feMergeNode in="SourceGraphic"/>
      </feMerge>
    </filter>
  </defs>
<rect x="1" y="1" width="778" height="398" rx="14" fill="url(#bg)" stroke="#39FF88" stroke-opacity="0.22"/>
  <rect x="0" y="0" width="780" height="40" rx="14" fill="#0d0b14"/>
  <rect x="0" y="26" width="780" height="14" fill="#0d0b14"/>
  <circle cx="26" cy="20" r="6" fill="#FF5F56"/>
  <circle cx="46" cy="20" r="6" fill="#FFBD2E"/>
  <circle cx="66" cy="20" r="6" fill="#27C93F"/>
  <text x="390.0" y="25" text-anchor="middle" font-family="Consolas, 'Courier New', monospace" font-size="13" fill="#6b7280">field-experience.log</text>
<path d="M14,36 L14,14 L36,14" stroke="#8B5CF6" stroke-width="2" fill="none" opacity="0.55"/>
<path d="M766,36 L766,14 L744,14" stroke="#8B5CF6" stroke-width="2" fill="none" opacity="0.55"/>
<path d="M14,364 L14,386 L36,386" stroke="#8B5CF6" stroke-width="2" fill="none" opacity="0.55"/>
<path d="M766,364 L766,386 L744,386" stroke="#8B5CF6" stroke-width="2" fill="none" opacity="0.55"/>
<text x="40" y="80" font-family="Consolas, monospace" font-size="18" font-weight="bold" fill="#39FF88">0x04 // FIELD EXPERIENCE</text><line x1="40" y1="94" x2="740" y2="94" stroke="#39FF88" stroke-opacity="0.25"/><line x1="52" y1="112" x2="52" y2="370" stroke="#8B5CF6" stroke-opacity="0.35" stroke-width="2"/><circle cx="52" cy="118" r="6" fill="#08070c" stroke="#39FF88" stroke-width="2" filter="url(#glow)"/><text x="80" y="114" font-family="Consolas, monospace" font-size="13.5" font-weight="bold" fill="#E9D5FF">Independent Security Researcher</text><text x="80" y="134" font-family="Consolas, monospace" font-size="11.5" fill="#A78BFA">HackerOne  ::  Sep 2024 - Present</text><text x="80" y="153" font-family="Consolas, monospace" font-size="11" fill="#8a94a3">Bug-bounty & vulnerability research on modern SPA / API architectures</text><circle cx="52" cy="210" r="6" fill="#08070c" stroke="#39FF88" stroke-width="2" filter="url(#glow)"/><text x="80" y="206" font-family="Consolas, monospace" font-size="13.5" font-weight="bold" fill="#E9D5FF">CTF Player</text><text x="80" y="226" font-family="Consolas, monospace" font-size="11.5" fill="#A78BFA">TryHackMe  ::  Nov 2023 - Present</text><text x="80" y="245" font-family="Consolas, monospace" font-size="11" fill="#8a94a3">65+ rooms : web exploitation, network attacks, Linux privesc, OSINT</text><circle cx="52" cy="302" r="6" fill="#08070c" stroke="#39FF88" stroke-width="2" filter="url(#glow)"/><text x="80" y="298" font-family="Consolas, monospace" font-size="13.5" font-weight="bold" fill="#E9D5FF">Cybersecurity Analyst (Virtual Internship)</text><text x="80" y="318" font-family="Consolas, monospace" font-size="11.5" fill="#A78BFA">Tata Group  ::  2024</text><text x="80" y="337" font-family="Consolas, monospace" font-size="11" fill="#8a94a3">Simulated real-world SOC analyst workflows</text></svg>