<svg width="780" height="420" viewBox="0 0 780 420" xmlns="http://www.w3.org/2000/svg">
  <defs>
    <linearGradient id="bgGradac" x1="0" y1="0" x2="1" y2="1">
      <stop offset="0%" stop-color="#050308"/>
      <stop offset="55%" stop-color="#0b0716"/>
      <stop offset="100%" stop-color="#140a26"/>
    </linearGradient>
    <linearGradient id="frameGradac" x1="0" y1="0" x2="1" y2="1">
      <stop offset="0%" stop-color="#39FF88"/>
      <stop offset="50%" stop-color="#8B5CF6"/>
      <stop offset="100%" stop-color="#E879F9"/>
    </linearGradient>
    <linearGradient id="accentGradac" x1="0" y1="0" x2="1" y2="0">
      <stop offset="0%" stop-color="#39FF88"/>
      <stop offset="100%" stop-color="#8B5CF6"/>
    </linearGradient>
    <linearGradient id="glassFillac" x1="0" y1="0" x2="0" y2="1">
      <stop offset="0%" stop-color="#ffffff" stop-opacity="0.07"/>
      <stop offset="100%" stop-color="#ffffff" stop-opacity="0.015"/>
    </linearGradient>
    <radialGradient id="blobVac" cx="50%" cy="50%" r="50%">
      <stop offset="0%" stop-color="#8B5CF6" stop-opacity="0.55"/>
      <stop offset="100%" stop-color="#8B5CF6" stop-opacity="0"/>
    </radialGradient>
    <radialGradient id="blobGac" cx="50%" cy="50%" r="50%">
      <stop offset="0%" stop-color="#39FF88" stop-opacity="0.45"/>
      <stop offset="100%" stop-color="#39FF88" stop-opacity="0"/>
    </radialGradient>
    <radialGradient id="blobMac" cx="50%" cy="50%" r="50%">
      <stop offset="0%" stop-color="#E879F9" stop-opacity="0.35"/>
      <stop offset="100%" stop-color="#E879F9" stop-opacity="0"/>
    </radialGradient>
    <filter id="blurBigac" x="-60%" y="-60%" width="220%" height="220%">
      <feGaussianBlur stdDeviation="38"/>
    </filter>
    <filter id="softGlowac" x="-80%" y="-80%" width="260%" height="260%">
      <feGaussianBlur stdDeviation="3.2" result="b"/>
      <feMerge><feMergeNode in="b"/><feMergeNode in="SourceGraphic"/></feMerge>
    </filter>
    <filter id="cardShadowac" x="-20%" y="-20%" width="140%" height="140%">
      <feDropShadow dx="0" dy="6" stdDeviation="10" flood-color="#000000" flood-opacity="0.35"/>
    </filter>
    <clipPath id="clipOuterac">
      <rect x="1" y="1" width="778" height="420" rx="20"/>
    </clipPath>
    <pattern id="gridac" width="26" height="26" patternUnits="userSpaceOnUse">
      <path d="M 26 0 L 0 0 0 26" fill="none" stroke="#ffffff" stroke-opacity="0.02" stroke-width="1"/>
    </pattern>
    
  </defs>
  <g clip-path="url(#clipOuterac)">
    <rect x="1" y="1" width="778" height="418" rx="20" fill="url(#bgGradac)"/>
    <rect x="1" y="1" width="778" height="418" fill="url(#gridac)"/>
    <circle cx="90" cy="60" r="150" fill="url(#blobVac)" filter="url(#blurBigac)"/>
    <circle cx="690" cy="350" r="170" fill="url(#blobGac)" filter="url(#blurBigac)"/>
    <circle cx="640" cy="90" r="120" fill="url(#blobMac)" filter="url(#blurBigac)"/>
  </g>
  <rect x="1" y="1" width="778" height="418" rx="20" fill="none" stroke="url(#frameGradac)" stroke-opacity="0.5" stroke-width="1.4"/>
  <rect x="16" y="14" width="748" height="34" rx="12" fill="#ffffff" fill-opacity="0.045" stroke="#ffffff" stroke-opacity="0.08"/>
  <circle cx="36" cy="31" r="5" fill="#FF5F56" opacity="0.9"/>
  <circle cx="54" cy="31" r="5" fill="#FFBD2E" opacity="0.9"/>
  <circle cx="72" cy="31" r="5" fill="#27C93F" opacity="0.9"/>
  <text x="390.0" y="35.5" text-anchor="middle" font-family="Consolas,'Courier New',monospace" font-size="12" fill="#8a94a3">achievements.log</text>
<text x="34" y="90" font-family="Consolas,monospace" font-size="18" font-weight="bold" fill="#39FF88" filter="url(#softGlowac)">0x05 // ACHIEVEMENTS</text>
  <line x1="34" y1="104" x2="746" y2="104" stroke="url(#accentGradac)" stroke-opacity="0.35" stroke-width="1.2"/>
<rect x="34" y="122" width="712" height="48" rx="12" fill="url(#glassFillac)" stroke="#ffffff" stroke-opacity="0.08" filter="url(#cardShadowac)"/>
  <rect x="34" y="122" width="4" height="48" rx="2" fill="url(#accentGradac)"/>
<rect x="50" y="135" width="108" height="22" rx="11.0" fill="#39FF88" fill-opacity="0.12" stroke="#39FF88" stroke-opacity="0.55"/>
  <text x="104.0" y="149.04" text-anchor="middle" font-family="Consolas,monospace" font-size="9.5" fill="#39FF88">TryHackMe</text>
<text x="176" y="151" font-family="Consolas,monospace" font-size="12" fill="#dcd6e8">Top 10% global rank : 65+ rooms : active since Nov 2023</text>
<rect x="34" y="180" width="712" height="48" rx="12" fill="url(#glassFillac)" stroke="#ffffff" stroke-opacity="0.08" filter="url(#cardShadowac)"/>
  <rect x="34" y="180" width="4" height="48" rx="2" fill="url(#accentGradac)"/>
<rect x="50" y="193" width="108" height="22" rx="11.0" fill="#39FF88" fill-opacity="0.12" stroke="#39FF88" stroke-opacity="0.55"/>
  <text x="104.0" y="207.04" text-anchor="middle" font-family="Consolas,monospace" font-size="9.5" fill="#39FF88">HackerOne</text>
<text x="176" y="209" font-family="Consolas,monospace" font-size="12" fill="#dcd6e8">Independent researcher : active since Sep 2024</text>
<rect x="34" y="238" width="712" height="48" rx="12" fill="url(#glassFillac)" stroke="#ffffff" stroke-opacity="0.08" filter="url(#cardShadowac)"/>
  <rect x="34" y="238" width="4" height="48" rx="2" fill="url(#accentGradac)"/>
<rect x="50" y="251" width="108" height="22" rx="11.0" fill="#39FF88" fill-opacity="0.12" stroke="#39FF88" stroke-opacity="0.55"/>
  <text x="104.0" y="265.04" text-anchor="middle" font-family="Consolas,monospace" font-size="9.5" fill="#39FF88">CLLMSE</text>
<text x="176" y="267" font-family="Consolas,monospace" font-size="12" fill="#dcd6e8">150 assessment questions + 10 hands-on labs, AI app attacks</text>
<rect x="34" y="296" width="712" height="48" rx="12" fill="url(#glassFillac)" stroke="#ffffff" stroke-opacity="0.08" filter="url(#cardShadowac)"/>
  <rect x="34" y="296" width="4" height="48" rx="2" fill="url(#accentGradac)"/>
<rect x="50" y="309" width="108" height="22" rx="11.0" fill="#39FF88" fill-opacity="0.12" stroke="#39FF88" stroke-opacity="0.55"/>
  <text x="104.0" y="323.04" text-anchor="middle" font-family="Consolas,monospace" font-size="9.5" fill="#39FF88">AD Lab</text>
<text x="176" y="325" font-family="Consolas,monospace" font-size="12" fill="#dcd6e8">100% detection coverage across all 3 simulated ATT&amp;CK scenarios</text>
<rect x="34" y="354" width="712" height="48" rx="12" fill="url(#glassFillac)" stroke="#ffffff" stroke-opacity="0.08" filter="url(#cardShadowac)"/>
  <rect x="34" y="354" width="4" height="48" rx="2" fill="url(#accentGradac)"/>
<rect x="50" y="367" width="108" height="22" rx="11.0" fill="#39FF88" fill-opacity="0.12" stroke="#39FF88" stroke-opacity="0.55"/>
  <text x="104.0" y="381.04" text-anchor="middle" font-family="Consolas,monospace" font-size="9.5" fill="#39FF88">AWAP-AI</text>
<text x="176" y="383" font-family="Consolas,monospace" font-size="12" fill="#dcd6e8">SQLi / XSS / IDOR / Broken Auth confirmed on Juice Shop + DVWA</text>
</svg>