<svg width="780" height="420" viewBox="0 0 780 420" xmlns="http://www.w3.org/2000/svg">
  <defs>
    <linearGradient id="bgGradac" x1="0" y1="0" x2="1" y2="1">
      <stop offset="0%" stop-color="#08070c"/>
      <stop offset="100%" stop-color="#12081f"/>
    </linearGradient>
    <linearGradient id="frameGradac" x1="0" y1="0" x2="1" y2="1">
      <stop offset="0%" stop-color="#39FF88"/>
      <stop offset="50%" stop-color="#8B5CF6"/>
      <stop offset="100%" stop-color="#E879F9"/>
    </linearGradient>
    <linearGradient id="accentGradac" x1="0" y1="0" x2="1" y2="0">
      <stop offset="0%" stop-color="#39FF88"/>
      <stop offset="100%" stop-color="#8B5CF6"/>
    </linearGradient>
    <linearGradient id="glassFillac" x1="0" y1="0" x2="0" y2="1">
      <stop offset="0%" stop-color="#151020"/>
      <stop offset="100%" stop-color="#0e0a17"/>
    </linearGradient>
    <filter id="softGlowac" x="-80%" y="-80%" width="260%" height="260%">
      <feGaussianBlur stdDeviation="2.6" result="b"/>
      <feMerge><feMergeNode in="b"/><feMergeNode in="SourceGraphic"/></feMerge>
    </filter>
    <filter id="cardShadowac" x="-20%" y="-20%" width="140%" height="140%">
      <feDropShadow dx="0" dy="4" stdDeviation="6" flood-color="#000000" flood-opacity="0.4"/>
    </filter>
    <clipPath id="clipOuterac">
      <rect x="1" y="1" width="778" height="420" rx="16"/>
    </clipPath>
    
  </defs>
  <rect x="1" y="1" width="778" height="418" rx="16" fill="url(#bgGradac)" stroke="url(#frameGradac)" stroke-opacity="0.4" stroke-width="1.2"/>
  <rect x="0" y="0" width="780" height="40" rx="16" fill="#0d0b14"/>
  <rect x="0" y="26" width="780" height="14" fill="#0d0b14"/>
  <circle cx="26" cy="20" r="6" fill="#FF5F56"/>
  <circle cx="46" cy="20" r="6" fill="#FFBD2E"/>
  <circle cx="66" cy="20" r="6" fill="#27C93F"/>
  <text x="390.0" y="25" text-anchor="middle" font-family="Consolas,'Courier New',monospace" font-size="13" fill="#6b7280">achievements.log</text>
  <path d="M14,36 L14,14 L36,14" stroke="#8B5CF6" stroke-width="2" fill="none" opacity="0.55"/>
  <path d="M766,36 L766,14 L744,14" stroke="#8B5CF6" stroke-width="2" fill="none" opacity="0.55"/>
  <path d="M14,384 L14,406 L36,406" stroke="#8B5CF6" stroke-width="2" fill="none" opacity="0.55"/>
  <path d="M766,384 L766,406 L744,406" stroke="#8B5CF6" stroke-width="2" fill="none" opacity="0.55"/>
<text x="34" y="90" font-family="Consolas,monospace" font-size="18" font-weight="bold" fill="#39FF88" filter="url(#softGlowac)">0x05 // ACHIEVEMENTS</text>
  <line x1="34" y1="104" x2="746" y2="104" stroke="url(#accentGradac)" stroke-opacity="0.35" stroke-width="1.2"/>
<rect x="34" y="122" width="712" height="48" rx="12" fill="url(#glassFillac)" stroke="#ffffff" stroke-opacity="0.08" filter="url(#cardShadowac)"/>
  <rect x="34" y="122" width="4" height="48" rx="2" fill="url(#accentGradac)"/>
<rect x="50" y="135" width="108" height="22" rx="11.0" fill="#39FF88" fill-opacity="0.12" stroke="#39FF88" stroke-opacity="0.55"/>
  <text x="104.0" y="149.04" text-anchor="middle" font-family="Consolas,monospace" font-size="9.5" fill="#39FF88">TryHackMe</text>
<text x="176" y="151" font-family="Consolas,monospace" font-size="12" fill="#dcd6e8">Top 10% global rank : 65+ rooms : active since Nov 2023</text>
<rect x="34" y="180" width="712" height="48" rx="12" fill="url(#glassFillac)" stroke="#ffffff" stroke-opacity="0.08" filter="url(#cardShadowac)"/>
  <rect x="34" y="180" width="4" height="48" rx="2" fill="url(#accentGradac)"/>
<rect x="50" y="193" width="108" height="22" rx="11.0" fill="#39FF88" fill-opacity="0.12" stroke="#39FF88" stroke-opacity="0.55"/>
  <text x="104.0" y="207.04" text-anchor="middle" font-family="Consolas,monospace" font-size="9.5" fill="#39FF88">HackerOne</text>
<text x="176" y="209" font-family="Consolas,monospace" font-size="12" fill="#dcd6e8">Independent researcher : active since Sep 2024</text>
<rect x="34" y="238" width="712" height="48" rx="12" fill="url(#glassFillac)" stroke="#ffffff" stroke-opacity="0.08" filter="url(#cardShadowac)"/>
  <rect x="34" y="238" width="4" height="48" rx="2" fill="url(#accentGradac)"/>
<rect x="50" y="251" width="108" height="22" rx="11.0" fill="#39FF88" fill-opacity="0.12" stroke="#39FF88" stroke-opacity="0.55"/>
  <text x="104.0" y="265.04" text-anchor="middle" font-family="Consolas,monospace" font-size="9.5" fill="#39FF88">CLLMSE</text>
<text x="176" y="267" font-family="Consolas,monospace" font-size="12" fill="#dcd6e8">150 assessment questions + 10 hands-on labs, AI app attacks</text>
<rect x="34" y="296" width="712" height="48" rx="12" fill="url(#glassFillac)" stroke="#ffffff" stroke-opacity="0.08" filter="url(#cardShadowac)"/>
  <rect x="34" y="296" width="4" height="48" rx="2" fill="url(#accentGradac)"/>
<rect x="50" y="309" width="108" height="22" rx="11.0" fill="#39FF88" fill-opacity="0.12" stroke="#39FF88" stroke-opacity="0.55"/>
  <text x="104.0" y="323.04" text-anchor="middle" font-family="Consolas,monospace" font-size="9.5" fill="#39FF88">AD Lab</text>
<text x="176" y="325" font-family="Consolas,monospace" font-size="12" fill="#dcd6e8">100% detection coverage across all 3 simulated ATT&amp;CK scenarios</text>
<rect x="34" y="354" width="712" height="48" rx="12" fill="url(#glassFillac)" stroke="#ffffff" stroke-opacity="0.08" filter="url(#cardShadowac)"/>
  <rect x="34" y="354" width="4" height="48" rx="2" fill="url(#accentGradac)"/>
<rect x="50" y="367" width="108" height="22" rx="11.0" fill="#39FF88" fill-opacity="0.12" stroke="#39FF88" stroke-opacity="0.55"/>
  <text x="104.0" y="381.04" text-anchor="middle" font-family="Consolas,monospace" font-size="9.5" fill="#39FF88">AWAP-AI</text>
<text x="176" y="383" font-family="Consolas,monospace" font-size="12" fill="#dcd6e8">SQLi / XSS / IDOR / Broken Auth confirmed on Juice Shop + DVWA</text>
</svg>