<svg width="780" height="470" viewBox="0 0 780 470" xmlns="http://www.w3.org/2000/svg">
  <defs>
    <linearGradient id="bgGradam" x1="0" y1="0" x2="1" y2="1">
      <stop offset="0%" stop-color="#08070c"/>
      <stop offset="100%" stop-color="#12081f"/>
    </linearGradient>
    <linearGradient id="frameGradam" x1="0" y1="0" x2="1" y2="1">
      <stop offset="0%" stop-color="#39FF88"/>
      <stop offset="50%" stop-color="#8B5CF6"/>
      <stop offset="100%" stop-color="#E879F9"/>
    </linearGradient>
    <linearGradient id="accentGradam" x1="0" y1="0" x2="1" y2="0">
      <stop offset="0%" stop-color="#39FF88"/>
      <stop offset="100%" stop-color="#8B5CF6"/>
    </linearGradient>
    <linearGradient id="glassFillam" x1="0" y1="0" x2="0" y2="1">
      <stop offset="0%" stop-color="#151020"/>
      <stop offset="100%" stop-color="#0e0a17"/>
    </linearGradient>
    <filter id="softGlowam" x="-80%" y="-80%" width="260%" height="260%">
      <feGaussianBlur stdDeviation="2.6" result="b"/>
      <feMerge><feMergeNode in="b"/><feMergeNode in="SourceGraphic"/></feMerge>
    </filter>
    <filter id="cardShadowam" x="-20%" y="-20%" width="140%" height="140%">
      <feDropShadow dx="0" dy="4" stdDeviation="6" flood-color="#000000" flood-opacity="0.4"/>
    </filter>
    <clipPath id="clipOuteram">
      <rect x="1" y="1" width="778" height="470" rx="16"/>
    </clipPath>
    
  </defs>
  <rect x="1" y="1" width="778" height="468" rx="16" fill="url(#bgGradam)" stroke="url(#frameGradam)" stroke-opacity="0.4" stroke-width="1.2"/>
  <rect x="0" y="0" width="780" height="40" rx="16" fill="#0d0b14"/>
  <rect x="0" y="26" width="780" height="14" fill="#0d0b14"/>
  <circle cx="26" cy="20" r="6" fill="#FF5F56"/>
  <circle cx="46" cy="20" r="6" fill="#FFBD2E"/>
  <circle cx="66" cy="20" r="6" fill="#27C93F"/>
  <text x="390.0" y="25" text-anchor="middle" font-family="Consolas,'Courier New',monospace" font-size="13" fill="#6b7280">ai-security-matrix.sh</text>
  <path d="M14,36 L14,14 L36,14" stroke="#8B5CF6" stroke-width="2" fill="none" opacity="0.55"/>
  <path d="M766,36 L766,14 L744,14" stroke="#8B5CF6" stroke-width="2" fill="none" opacity="0.55"/>
  <path d="M14,434 L14,456 L36,456" stroke="#8B5CF6" stroke-width="2" fill="none" opacity="0.55"/>
  <path d="M766,434 L766,456 L744,456" stroke="#8B5CF6" stroke-width="2" fill="none" opacity="0.55"/>
<text x="34" y="90" font-family="Consolas,monospace" font-size="18" font-weight="bold" fill="#39FF88" filter="url(#softGlowam)">0x02 // AI / LLM SECURITY MATRIX</text>
  <line x1="34" y1="104" x2="746" y2="104" stroke="url(#accentGradam)" stroke-opacity="0.35" stroke-width="1.2"/>
<rect x="34" y="122" width="712" height="54" rx="12" fill="url(#glassFillam)" stroke="#ffffff" stroke-opacity="0.08" filter="url(#cardShadowam)"/>
  <rect x="34" y="122" width="4" height="54" rx="2" fill="url(#accentGradam)"/>
<text x="52" y="144" font-family="Consolas,monospace" font-size="12.5" fill="#A78BFA">prompt_injection</text>
<text x="52" y="162" font-family="Consolas,monospace" font-size="10" fill="#6b7280">direct &amp; indirect vector ID + mitigation (CLLMSE)</text>
<rect x="200" y="138" width="430" height="10" rx="5" fill="#ffffff" fill-opacity="0.06"/>
<rect x="200" y="138" width="344.0" height="10" rx="5" fill="url(#accentGradam)" filter="url(#softGlowam)"/>
<rect x="692" y="135" width="54" height="20" rx="10.0" fill="#39FF88" fill-opacity="0.12" stroke="#39FF88" stroke-opacity="0.55"/>
  <text x="719.0" y="148.36" text-anchor="middle" font-family="Consolas,monospace" font-size="10.5" fill="#39FF88">80%</text>
<rect x="34" y="186" width="712" height="54" rx="12" fill="url(#glassFillam)" stroke="#ffffff" stroke-opacity="0.08" filter="url(#cardShadowam)"/>
  <rect x="34" y="186" width="4" height="54" rx="2" fill="url(#accentGradam)"/>
<text x="52" y="208" font-family="Consolas,monospace" font-size="12.5" fill="#A78BFA">rag_security</text>
<text x="52" y="226" font-family="Consolas,monospace" font-size="10" fill="#6b7280">retrieval pipeline hardening vs poisoning attacks</text>
<rect x="200" y="202" width="430" height="10" rx="5" fill="#ffffff" fill-opacity="0.06"/>
<rect x="200" y="202" width="344.0" height="10" rx="5" fill="url(#accentGradam)" filter="url(#softGlowam)"/>
<rect x="692" y="199" width="54" height="20" rx="10.0" fill="#39FF88" fill-opacity="0.12" stroke="#39FF88" stroke-opacity="0.55"/>
  <text x="719.0" y="212.36" text-anchor="middle" font-family="Consolas,monospace" font-size="10.5" fill="#39FF88">80%</text>
<rect x="34" y="250" width="712" height="54" rx="12" fill="url(#glassFillam)" stroke="#ffffff" stroke-opacity="0.08" filter="url(#cardShadowam)"/>
  <rect x="34" y="250" width="4" height="54" rx="2" fill="url(#accentGradam)"/>
<text x="52" y="272" font-family="Consolas,monospace" font-size="12.5" fill="#A78BFA">ai_agent_security</text>
<text x="52" y="290" font-family="Consolas,monospace" font-size="10" fill="#6b7280">threat modeling autonomous tool-use chains</text>
<rect x="200" y="266" width="430" height="10" rx="5" fill="#ffffff" fill-opacity="0.06"/>
<rect x="200" y="266" width="258.0" height="10" rx="5" fill="url(#accentGradam)" filter="url(#softGlowam)"/>
<rect x="692" y="263" width="54" height="20" rx="10.0" fill="#39FF88" fill-opacity="0.12" stroke="#39FF88" stroke-opacity="0.55"/>
  <text x="719.0" y="276.36" text-anchor="middle" font-family="Consolas,monospace" font-size="10.5" fill="#39FF88">60%</text>
<rect x="34" y="314" width="712" height="54" rx="12" fill="url(#glassFillam)" stroke="#ffffff" stroke-opacity="0.08" filter="url(#cardShadowam)"/>
  <rect x="34" y="314" width="4" height="54" rx="2" fill="url(#accentGradam)"/>
<text x="52" y="336" font-family="Consolas,monospace" font-size="12.5" fill="#A78BFA">mcp_security</text>
<text x="52" y="354" font-family="Consolas,monospace" font-size="10" fill="#6b7280">Model Context Protocol attack-surface analysis</text>
<rect x="200" y="330" width="430" height="10" rx="5" fill="#ffffff" fill-opacity="0.06"/>
<rect x="200" y="330" width="258.0" height="10" rx="5" fill="url(#accentGradam)" filter="url(#softGlowam)"/>
<rect x="692" y="327" width="54" height="20" rx="10.0" fill="#39FF88" fill-opacity="0.12" stroke="#39FF88" stroke-opacity="0.55"/>
  <text x="719.0" y="340.36" text-anchor="middle" font-family="Consolas,monospace" font-size="10.5" fill="#39FF88">60%</text>
<rect x="34" y="378" width="712" height="54" rx="12" fill="url(#glassFillam)" stroke="#ffffff" stroke-opacity="0.08" filter="url(#cardShadowam)"/>
  <rect x="34" y="378" width="4" height="54" rx="2" fill="url(#accentGradam)"/>
<text x="52" y="400" font-family="Consolas,monospace" font-size="12.5" fill="#A78BFA">owasp_llm_top10</text>
<text x="52" y="418" font-family="Consolas,monospace" font-size="10" fill="#6b7280">applied coverage, 2025 risk categories</text>
<rect x="200" y="394" width="430" height="10" rx="5" fill="#ffffff" fill-opacity="0.06"/>
<rect x="200" y="394" width="344.0" height="10" rx="5" fill="url(#accentGradam)" filter="url(#softGlowam)"/>
<rect x="692" y="391" width="54" height="20" rx="10.0" fill="#39FF88" fill-opacity="0.12" stroke="#39FF88" stroke-opacity="0.55"/>
  <text x="719.0" y="404.36" text-anchor="middle" font-family="Consolas,monospace" font-size="10.5" fill="#39FF88">80%</text>
<rect x="34" y="442" width="712" height="54" rx="12" fill="url(#glassFillam)" stroke="#ffffff" stroke-opacity="0.08" filter="url(#cardShadowam)"/>
  <rect x="34" y="442" width="4" height="54" rx="2" fill="url(#accentGradam)"/>
<text x="52" y="464" font-family="Consolas,monospace" font-size="12.5" fill="#A78BFA">ai_driven_triage</text>
<text x="52" y="482" font-family="Consolas,monospace" font-size="10" fill="#6b7280">shipped inside AWAP-AI live verification pipeline</text>
<rect x="200" y="458" width="430" height="10" rx="5" fill="#ffffff" fill-opacity="0.06"/>
<rect x="200" y="458" width="430.0" height="10" rx="5" fill="url(#accentGradam)" filter="url(#softGlowam)"/>
<rect x="692" y="455" width="54" height="20" rx="10.0" fill="#39FF88" fill-opacity="0.12" stroke="#39FF88" stroke-opacity="0.55"/>
  <text x="719.0" y="468.36" text-anchor="middle" font-family="Consolas,monospace" font-size="10.5" fill="#39FF88">100%</text>
</svg>