<svg width="780" height="470" viewBox="0 0 780 470" xmlns="http://www.w3.org/2000/svg">
  <defs>
    <linearGradient id="bgGradam" x1="0" y1="0" x2="1" y2="1">
      <stop offset="0%" stop-color="#050308"/>
      <stop offset="55%" stop-color="#0b0716"/>
      <stop offset="100%" stop-color="#140a26"/>
    </linearGradient>
    <linearGradient id="frameGradam" x1="0" y1="0" x2="1" y2="1">
      <stop offset="0%" stop-color="#39FF88"/>
      <stop offset="50%" stop-color="#8B5CF6"/>
      <stop offset="100%" stop-color="#E879F9"/>
    </linearGradient>
    <linearGradient id="accentGradam" x1="0" y1="0" x2="1" y2="0">
      <stop offset="0%" stop-color="#39FF88"/>
      <stop offset="100%" stop-color="#8B5CF6"/>
    </linearGradient>
    <linearGradient id="glassFillam" x1="0" y1="0" x2="0" y2="1">
      <stop offset="0%" stop-color="#ffffff" stop-opacity="0.07"/>
      <stop offset="100%" stop-color="#ffffff" stop-opacity="0.015"/>
    </linearGradient>
    <radialGradient id="blobVam" cx="50%" cy="50%" r="50%">
      <stop offset="0%" stop-color="#8B5CF6" stop-opacity="0.55"/>
      <stop offset="100%" stop-color="#8B5CF6" stop-opacity="0"/>
    </radialGradient>
    <radialGradient id="blobGam" cx="50%" cy="50%" r="50%">
      <stop offset="0%" stop-color="#39FF88" stop-opacity="0.45"/>
      <stop offset="100%" stop-color="#39FF88" stop-opacity="0"/>
    </radialGradient>
    <radialGradient id="blobMam" cx="50%" cy="50%" r="50%">
      <stop offset="0%" stop-color="#E879F9" stop-opacity="0.35"/>
      <stop offset="100%" stop-color="#E879F9" stop-opacity="0"/>
    </radialGradient>
    <filter id="blurBigam" x="-60%" y="-60%" width="220%" height="220%">
      <feGaussianBlur stdDeviation="38"/>
    </filter>
    <filter id="softGlowam" x="-80%" y="-80%" width="260%" height="260%">
      <feGaussianBlur stdDeviation="3.2" result="b"/>
      <feMerge><feMergeNode in="b"/><feMergeNode in="SourceGraphic"/></feMerge>
    </filter>
    <filter id="cardShadowam" x="-20%" y="-20%" width="140%" height="140%">
      <feDropShadow dx="0" dy="6" stdDeviation="10" flood-color="#000000" flood-opacity="0.35"/>
    </filter>
    <clipPath id="clipOuteram">
      <rect x="1" y="1" width="778" height="470" rx="20"/>
    </clipPath>
    <pattern id="gridam" width="26" height="26" patternUnits="userSpaceOnUse">
      <path d="M 26 0 L 0 0 0 26" fill="none" stroke="#ffffff" stroke-opacity="0.02" stroke-width="1"/>
    </pattern>
    
  </defs>
  <g clip-path="url(#clipOuteram)">
    <rect x="1" y="1" width="778" height="468" rx="20" fill="url(#bgGradam)"/>
    <rect x="1" y="1" width="778" height="468" fill="url(#gridam)"/>
    <circle cx="90" cy="60" r="150" fill="url(#blobVam)" filter="url(#blurBigam)"/>
    <circle cx="690" cy="400" r="170" fill="url(#blobGam)" filter="url(#blurBigam)"/>
    <circle cx="640" cy="90" r="120" fill="url(#blobMam)" filter="url(#blurBigam)"/>
  </g>
  <rect x="1" y="1" width="778" height="468" rx="20" fill="none" stroke="url(#frameGradam)" stroke-opacity="0.5" stroke-width="1.4"/>
  <rect x="16" y="14" width="748" height="34" rx="12" fill="#ffffff" fill-opacity="0.045" stroke="#ffffff" stroke-opacity="0.08"/>
  <circle cx="36" cy="31" r="5" fill="#FF5F56" opacity="0.9"/>
  <circle cx="54" cy="31" r="5" fill="#FFBD2E" opacity="0.9"/>
  <circle cx="72" cy="31" r="5" fill="#27C93F" opacity="0.9"/>
  <text x="390.0" y="35.5" text-anchor="middle" font-family="Consolas,'Courier New',monospace" font-size="12" fill="#8a94a3">ai-security-matrix.sh</text>
<text x="34" y="90" font-family="Consolas,monospace" font-size="18" font-weight="bold" fill="#39FF88" filter="url(#softGlowam)">0x02 // AI / LLM SECURITY MATRIX</text>
  <line x1="34" y1="104" x2="746" y2="104" stroke="url(#accentGradam)" stroke-opacity="0.35" stroke-width="1.2"/>
<rect x="34" y="122" width="712" height="54" rx="12" fill="url(#glassFillam)" stroke="#ffffff" stroke-opacity="0.08" filter="url(#cardShadowam)"/>
  <rect x="34" y="122" width="4" height="54" rx="2" fill="url(#accentGradam)"/>
<text x="52" y="144" font-family="Consolas,monospace" font-size="12.5" fill="#A78BFA">prompt_injection</text>
<text x="52" y="162" font-family="Consolas,monospace" font-size="10" fill="#6b7280">direct &amp; indirect vector ID + mitigation (CLLMSE)</text>
<rect x="200" y="138" width="430" height="10" rx="5" fill="#ffffff" fill-opacity="0.06"/>
<rect x="200" y="138" width="344.0" height="10" rx="5" fill="url(#accentGradam)" filter="url(#softGlowam)"/>
<rect x="692" y="135" width="54" height="20" rx="10.0" fill="#39FF88" fill-opacity="0.12" stroke="#39FF88" stroke-opacity="0.55"/>
  <text x="719.0" y="148.36" text-anchor="middle" font-family="Consolas,monospace" font-size="10.5" fill="#39FF88">80%</text>
<rect x="34" y="186" width="712" height="54" rx="12" fill="url(#glassFillam)" stroke="#ffffff" stroke-opacity="0.08" filter="url(#cardShadowam)"/>
  <rect x="34" y="186" width="4" height="54" rx="2" fill="url(#accentGradam)"/>
<text x="52" y="208" font-family="Consolas,monospace" font-size="12.5" fill="#A78BFA">rag_security</text>
<text x="52" y="226" font-family="Consolas,monospace" font-size="10" fill="#6b7280">retrieval pipeline hardening vs poisoning attacks</text>
<rect x="200" y="202" width="430" height="10" rx="5" fill="#ffffff" fill-opacity="0.06"/>
<rect x="200" y="202" width="344.0" height="10" rx="5" fill="url(#accentGradam)" filter="url(#softGlowam)"/>
<rect x="692" y="199" width="54" height="20" rx="10.0" fill="#39FF88" fill-opacity="0.12" stroke="#39FF88" stroke-opacity="0.55"/>
  <text x="719.0" y="212.36" text-anchor="middle" font-family="Consolas,monospace" font-size="10.5" fill="#39FF88">80%</text>
<rect x="34" y="250" width="712" height="54" rx="12" fill="url(#glassFillam)" stroke="#ffffff" stroke-opacity="0.08" filter="url(#cardShadowam)"/>
  <rect x="34" y="250" width="4" height="54" rx="2" fill="url(#accentGradam)"/>
<text x="52" y="272" font-family="Consolas,monospace" font-size="12.5" fill="#A78BFA">ai_agent_security</text>
<text x="52" y="290" font-family="Consolas,monospace" font-size="10" fill="#6b7280">threat modeling autonomous tool-use chains</text>
<rect x="200" y="266" width="430" height="10" rx="5" fill="#ffffff" fill-opacity="0.06"/>
<rect x="200" y="266" width="258.0" height="10" rx="5" fill="url(#accentGradam)" filter="url(#softGlowam)"/>
<rect x="692" y="263" width="54" height="20" rx="10.0" fill="#39FF88" fill-opacity="0.12" stroke="#39FF88" stroke-opacity="0.55"/>
  <text x="719.0" y="276.36" text-anchor="middle" font-family="Consolas,monospace" font-size="10.5" fill="#39FF88">60%</text>
<rect x="34" y="314" width="712" height="54" rx="12" fill="url(#glassFillam)" stroke="#ffffff" stroke-opacity="0.08" filter="url(#cardShadowam)"/>
  <rect x="34" y="314" width="4" height="54" rx="2" fill="url(#accentGradam)"/>
<text x="52" y="336" font-family="Consolas,monospace" font-size="12.5" fill="#A78BFA">mcp_security</text>
<text x="52" y="354" font-family="Consolas,monospace" font-size="10" fill="#6b7280">Model Context Protocol attack-surface analysis</text>
<rect x="200" y="330" width="430" height="10" rx="5" fill="#ffffff" fill-opacity="0.06"/>
<rect x="200" y="330" width="258.0" height="10" rx="5" fill="url(#accentGradam)" filter="url(#softGlowam)"/>
<rect x="692" y="327" width="54" height="20" rx="10.0" fill="#39FF88" fill-opacity="0.12" stroke="#39FF88" stroke-opacity="0.55"/>
  <text x="719.0" y="340.36" text-anchor="middle" font-family="Consolas,monospace" font-size="10.5" fill="#39FF88">60%</text>
<rect x="34" y="378" width="712" height="54" rx="12" fill="url(#glassFillam)" stroke="#ffffff" stroke-opacity="0.08" filter="url(#cardShadowam)"/>
  <rect x="34" y="378" width="4" height="54" rx="2" fill="url(#accentGradam)"/>
<text x="52" y="400" font-family="Consolas,monospace" font-size="12.5" fill="#A78BFA">owasp_llm_top10</text>
<text x="52" y="418" font-family="Consolas,monospace" font-size="10" fill="#6b7280">applied coverage, 2025 risk categories</text>
<rect x="200" y="394" width="430" height="10" rx="5" fill="#ffffff" fill-opacity="0.06"/>
<rect x="200" y="394" width="344.0" height="10" rx="5" fill="url(#accentGradam)" filter="url(#softGlowam)"/>
<rect x="692" y="391" width="54" height="20" rx="10.0" fill="#39FF88" fill-opacity="0.12" stroke="#39FF88" stroke-opacity="0.55"/>
  <text x="719.0" y="404.36" text-anchor="middle" font-family="Consolas,monospace" font-size="10.5" fill="#39FF88">80%</text>
<rect x="34" y="442" width="712" height="54" rx="12" fill="url(#glassFillam)" stroke="#ffffff" stroke-opacity="0.08" filter="url(#cardShadowam)"/>
  <rect x="34" y="442" width="4" height="54" rx="2" fill="url(#accentGradam)"/>
<text x="52" y="464" font-family="Consolas,monospace" font-size="12.5" fill="#A78BFA">ai_driven_triage</text>
<text x="52" y="482" font-family="Consolas,monospace" font-size="10" fill="#6b7280">shipped inside AWAP-AI live verification pipeline</text>
<rect x="200" y="458" width="430" height="10" rx="5" fill="#ffffff" fill-opacity="0.06"/>
<rect x="200" y="458" width="430.0" height="10" rx="5" fill="url(#accentGradam)" filter="url(#softGlowam)"/>
<rect x="692" y="455" width="54" height="20" rx="10.0" fill="#39FF88" fill-opacity="0.12" stroke="#39FF88" stroke-opacity="0.55"/>
  <text x="719.0" y="468.36" text-anchor="middle" font-family="Consolas,monospace" font-size="10.5" fill="#39FF88">100%</text>
</svg>