<svg width="780" height="420" viewBox="0 0 780 420" xmlns="http://www.w3.org/2000/svg">
  <defs>
    <linearGradient id="bgGradce" x1="0" y1="0" x2="1" y2="1">
      <stop offset="0%" stop-color="#050308"/>
      <stop offset="55%" stop-color="#0b0716"/>
      <stop offset="100%" stop-color="#140a26"/>
    </linearGradient>
    <linearGradient id="frameGradce" x1="0" y1="0" x2="1" y2="1">
      <stop offset="0%" stop-color="#39FF88"/>
      <stop offset="50%" stop-color="#8B5CF6"/>
      <stop offset="100%" stop-color="#E879F9"/>
    </linearGradient>
    <linearGradient id="accentGradce" x1="0" y1="0" x2="1" y2="0">
      <stop offset="0%" stop-color="#39FF88"/>
      <stop offset="100%" stop-color="#8B5CF6"/>
    </linearGradient>
    <linearGradient id="glassFillce" x1="0" y1="0" x2="0" y2="1">
      <stop offset="0%" stop-color="#ffffff" stop-opacity="0.07"/>
      <stop offset="100%" stop-color="#ffffff" stop-opacity="0.015"/>
    </linearGradient>
    <radialGradient id="blobVce" cx="50%" cy="50%" r="50%">
      <stop offset="0%" stop-color="#8B5CF6" stop-opacity="0.55"/>
      <stop offset="100%" stop-color="#8B5CF6" stop-opacity="0"/>
    </radialGradient>
    <radialGradient id="blobGce" cx="50%" cy="50%" r="50%">
      <stop offset="0%" stop-color="#39FF88" stop-opacity="0.45"/>
      <stop offset="100%" stop-color="#39FF88" stop-opacity="0"/>
    </radialGradient>
    <radialGradient id="blobMce" cx="50%" cy="50%" r="50%">
      <stop offset="0%" stop-color="#E879F9" stop-opacity="0.35"/>
      <stop offset="100%" stop-color="#E879F9" stop-opacity="0"/>
    </radialGradient>
    <filter id="blurBigce" x="-60%" y="-60%" width="220%" height="220%">
      <feGaussianBlur stdDeviation="38"/>
    </filter>
    <filter id="softGlowce" x="-80%" y="-80%" width="260%" height="260%">
      <feGaussianBlur stdDeviation="3.2" result="b"/>
      <feMerge><feMergeNode in="b"/><feMergeNode in="SourceGraphic"/></feMerge>
    </filter>
    <filter id="cardShadowce" x="-20%" y="-20%" width="140%" height="140%">
      <feDropShadow dx="0" dy="6" stdDeviation="10" flood-color="#000000" flood-opacity="0.35"/>
    </filter>
    <clipPath id="clipOuterce">
      <rect x="1" y="1" width="778" height="420" rx="20"/>
    </clipPath>
    <pattern id="gridce" width="26" height="26" patternUnits="userSpaceOnUse">
      <path d="M 26 0 L 0 0 0 26" fill="none" stroke="#ffffff" stroke-opacity="0.02" stroke-width="1"/>
    </pattern>
    
  </defs>
  <g clip-path="url(#clipOuterce)">
    <rect x="1" y="1" width="778" height="418" rx="20" fill="url(#bgGradce)"/>
    <rect x="1" y="1" width="778" height="418" fill="url(#gridce)"/>
    <circle cx="90" cy="60" r="150" fill="url(#blobVce)" filter="url(#blurBigce)"/>
    <circle cx="690" cy="350" r="170" fill="url(#blobGce)" filter="url(#blurBigce)"/>
    <circle cx="640" cy="90" r="120" fill="url(#blobMce)" filter="url(#blurBigce)"/>
  </g>
  <rect x="1" y="1" width="778" height="418" rx="20" fill="none" stroke="url(#frameGradce)" stroke-opacity="0.5" stroke-width="1.4"/>
  <rect x="16" y="14" width="748" height="34" rx="12" fill="#ffffff" fill-opacity="0.045" stroke="#ffffff" stroke-opacity="0.08"/>
  <circle cx="36" cy="31" r="5" fill="#FF5F56" opacity="0.9"/>
  <circle cx="54" cy="31" r="5" fill="#FFBD2E" opacity="0.9"/>
  <circle cx="72" cy="31" r="5" fill="#27C93F" opacity="0.9"/>
  <text x="390.0" y="35.5" text-anchor="middle" font-family="Consolas,'Courier New',monospace" font-size="12" fill="#8a94a3">certifications.db</text>
<text x="34" y="90" font-family="Consolas,monospace" font-size="18" font-weight="bold" fill="#39FF88" filter="url(#softGlowce)">0x06 // CERTIFICATIONS &amp; TRAINING</text>
  <line x1="34" y1="104" x2="746" y2="104" stroke="url(#accentGradce)" stroke-opacity="0.35" stroke-width="1.2"/>
<rect x="34" y="122" width="712" height="48" rx="12" fill="url(#glassFillce)" stroke="#ffffff" stroke-opacity="0.08" filter="url(#cardShadowce)"/>
  <rect x="34" y="122" width="4" height="48" rx="2" fill="url(#accentGradce)"/>
<rect x="50" y="135" width="118" height="22" rx="11.0" fill="#A78BFA" fill-opacity="0.12" stroke="#A78BFA" stroke-opacity="0.55"/>
  <text x="109.0" y="148.88" text-anchor="middle" font-family="Consolas,monospace" font-size="9" fill="#A78BFA">IN PROGRESS</text>
<text x="182" y="144" font-family="Consolas,monospace" font-size="12.5" fill="#E9D5FF">CompTIA Security+ (SY0-701)</text>
<text x="182" y="161" font-family="Consolas,monospace" font-size="10" fill="#8a94a3">CompTIA :: expected Aug 2026</text>
<rect x="34" y="180" width="712" height="48" rx="12" fill="url(#glassFillce)" stroke="#ffffff" stroke-opacity="0.08" filter="url(#cardShadowce)"/>
  <rect x="34" y="180" width="4" height="48" rx="2" fill="url(#accentGradce)"/>
<rect x="50" y="193" width="118" height="22" rx="11.0" fill="#39FF88" fill-opacity="0.12" stroke="#39FF88" stroke-opacity="0.55"/>
  <text x="109.0" y="206.88" text-anchor="middle" font-family="Consolas,monospace" font-size="9" fill="#39FF88">CERTIFIED</text>
<text x="182" y="202" font-family="Consolas,monospace" font-size="12.5" fill="#E9D5FF">LLM Security Expert (CLLMSE)</text>
<text x="182" y="219" font-family="Consolas,monospace" font-size="10" fill="#8a94a3">Red Team Leaders :: Jul 2026</text>
<rect x="34" y="238" width="712" height="48" rx="12" fill="url(#glassFillce)" stroke="#ffffff" stroke-opacity="0.08" filter="url(#cardShadowce)"/>
  <rect x="34" y="238" width="4" height="48" rx="2" fill="url(#accentGradce)"/>
<rect x="50" y="251" width="118" height="22" rx="11.0" fill="#6b7280" fill-opacity="0.12" stroke="#6b7280" stroke-opacity="0.55"/>
  <text x="109.0" y="264.88" text-anchor="middle" font-family="Consolas,monospace" font-size="9" fill="#6b7280">COMPLETED</text>
<text x="182" y="260" font-family="Consolas,monospace" font-size="12.5" fill="#E9D5FF">Pre Security</text>
<text x="182" y="277" font-family="Consolas,monospace" font-size="10" fill="#8a94a3">TryHackMe :: 2025</text>
<rect x="34" y="296" width="712" height="48" rx="12" fill="url(#glassFillce)" stroke="#ffffff" stroke-opacity="0.08" filter="url(#cardShadowce)"/>
  <rect x="34" y="296" width="4" height="48" rx="2" fill="url(#accentGradce)"/>
<rect x="50" y="309" width="118" height="22" rx="11.0" fill="#6b7280" fill-opacity="0.12" stroke="#6b7280" stroke-opacity="0.55"/>
  <text x="109.0" y="322.88" text-anchor="middle" font-family="Consolas,monospace" font-size="9" fill="#6b7280">COMPLETED</text>
<text x="182" y="318" font-family="Consolas,monospace" font-size="12.5" fill="#E9D5FF">Cybersecurity Analyst Virtual Internship</text>
<text x="182" y="335" font-family="Consolas,monospace" font-size="10" fill="#8a94a3">Tata Group :: 2024</text>
<rect x="34" y="354" width="712" height="48" rx="12" fill="url(#glassFillce)" stroke="#ffffff" stroke-opacity="0.08" filter="url(#cardShadowce)"/>
  <rect x="34" y="354" width="4" height="48" rx="2" fill="url(#accentGradce)"/>
<rect x="50" y="367" width="118" height="22" rx="11.0" fill="#6b7280" fill-opacity="0.12" stroke="#6b7280" stroke-opacity="0.55"/>
  <text x="109.0" y="380.88" text-anchor="middle" font-family="Consolas,monospace" font-size="9" fill="#6b7280">COMPLETED</text>
<text x="182" y="376" font-family="Consolas,monospace" font-size="12.5" fill="#E9D5FF">Monitor &amp; Log with GCP Observability</text>
<text x="182" y="393" font-family="Consolas,monospace" font-size="10" fill="#8a94a3">Google :: 2024</text>
</svg>