<svg width="780" height="96" viewBox="0 0 780 96" xmlns="http://www.w3.org/2000/svg">
  <defs>
    <linearGradient id="bgGradcn" x1="0" y1="0" x2="1" y2="1">
      <stop offset="0%" stop-color="#050308"/>
      <stop offset="55%" stop-color="#0b0716"/>
      <stop offset="100%" stop-color="#140a26"/>
    </linearGradient>
    <linearGradient id="frameGradcn" x1="0" y1="0" x2="1" y2="1">
      <stop offset="0%" stop-color="#39FF88"/>
      <stop offset="50%" stop-color="#8B5CF6"/>
      <stop offset="100%" stop-color="#E879F9"/>
    </linearGradient>
    <radialGradient id="blobVcn" cx="50%" cy="50%" r="50%">
      <stop offset="0%" stop-color="#8B5CF6" stop-opacity="0.5"/>
      <stop offset="100%" stop-color="#8B5CF6" stop-opacity="0"/>
    </radialGradient>
    <radialGradient id="blobGcn" cx="50%" cy="50%" r="50%">
      <stop offset="0%" stop-color="#39FF88" stop-opacity="0.4"/>
      <stop offset="100%" stop-color="#39FF88" stop-opacity="0"/>
    </radialGradient>
    <filter id="blurBigcn" x="-60%" y="-60%" width="220%" height="220%">
      <feGaussianBlur stdDeviation="30"/>
    </filter>
    <clipPath id="clipOutercn"><rect x="1" y="1" width="778" height="94" rx="18"/></clipPath>
  </defs>
  <g clip-path="url(#clipOutercn)">
    <rect x="1" y="1" width="778" height="94" rx="18" fill="url(#bgGradcn)"/>
    <circle cx="70" cy="48.0" r="90" fill="url(#blobVcn)" filter="url(#blurBigcn)"/>
    <circle cx="710" cy="48.0" r="100" fill="url(#blobGcn)" filter="url(#blurBigcn)"/>
  </g>
  <rect x="1" y="1" width="778" height="94" rx="18" fill="none" stroke="url(#frameGradcn)" stroke-opacity="0.5" stroke-width="1.4"/>
<rect x="30" y="33.0" width="137.6" height="30" rx="15" fill="#8B5CF6" fill-opacity="0.10" stroke="#8B5CF6" stroke-opacity="0.55"/>
<text x="98.8" y="52.5" text-anchor="middle" font-family="Consolas,monospace" font-size="12" fill="#A78BFA">Bengaluru, India</text>
<rect x="181.6" y="33.0" width="158.9" height="30" rx="15" fill="#39FF88" fill-opacity="0.10" stroke="#39FF88" stroke-opacity="0.55"/>
<text x="261.1" y="52.5" text-anchor="middle" font-family="Consolas,monospace" font-size="12" fill="#39FF88">Open to Internships</text>
<rect x="354.5" y="33.0" width="151.8" height="30" rx="15" fill="#E879F9" fill-opacity="0.10" stroke="#E879F9" stroke-opacity="0.55"/>
<text x="430.4" y="52.5" text-anchor="middle" font-family="Consolas,monospace" font-size="12" fill="#E9A6FF">Offensive Security</text>
<rect x="520.3" y="33.0" width="144.7" height="30" rx="15" fill="#39FF88" fill-opacity="0.10" stroke="#39FF88" stroke-opacity="0.55"/>
<text x="592.6" y="52.5" text-anchor="middle" font-family="Consolas,monospace" font-size="12" fill="#39FF88">AI / LLM Security</text>
</svg>