<svg width="780" height="400" viewBox="0 0 780 400" xmlns="http://www.w3.org/2000/svg">
  <defs>
    <linearGradient id="bg" x1="0" y1="0" x2="1" y2="1">
      <stop offset="0%" stop-color="#08070c"/>
      <stop offset="100%" stop-color="#12081f"/>
    </linearGradient>
    <linearGradient id="bar" x1="0" y1="0" x2="1" y2="0">
      <stop offset="0%" stop-color="#39FF88"/>
      <stop offset="100%" stop-color="#8B5CF6"/>
    </linearGradient>
    <filter id="glow" x="-50%" y="-50%" width="200%" height="200%">
      <feGaussianBlur stdDeviation="4" result="blur"/>
      <feMerge>
        <feMergeNode in="blur"/>
        <feMergeNode in="SourceGraphic"/>
      </feMerge>
    </filter>
  </defs>
<rect x="1" y="1" width="778" height="398" rx="14" fill="url(#bg)" stroke="#39FF88" stroke-opacity="0.22"/>
  <rect x="0" y="0" width="780" height="40" rx="14" fill="#0d0b14"/>
  <rect x="0" y="26" width="780" height="14" fill="#0d0b14"/>
  <circle cx="26" cy="20" r="6" fill="#FF5F56"/>
  <circle cx="46" cy="20" r="6" fill="#FFBD2E"/>
  <circle cx="66" cy="20" r="6" fill="#27C93F"/>
  <text x="390.0" y="25" text-anchor="middle" font-family="Consolas, 'Courier New', monospace" font-size="13" fill="#6b7280">process.yaml</text>
<path d="M14,36 L14,14 L36,14" stroke="#8B5CF6" stroke-width="2" fill="none" opacity="0.55"/>
<path d="M766,36 L766,14 L744,14" stroke="#8B5CF6" stroke-width="2" fill="none" opacity="0.55"/>
<path d="M14,364 L14,386 L36,386" stroke="#8B5CF6" stroke-width="2" fill="none" opacity="0.55"/>
<path d="M766,364 L766,386 L744,386" stroke="#8B5CF6" stroke-width="2" fill="none" opacity="0.55"/>
<text x="40" y="80" font-family="Consolas, monospace" font-size="18" font-weight="bold" fill="#39FF88">0x08 // CURRENT PROCESS</text><line x1="40" y1="94" x2="740" y2="94" stroke="#39FF88" stroke-opacity="0.25"/><text x="40" y="118" font-family="Consolas, monospace" font-size="13" fill="#8B5CF6">learning:</text><text x="60" y="140" font-family="Consolas, monospace" font-size="11.5" fill="#dcd6e8">- Advanced AI agent security & MCP threat modeling</text><text x="60" y="162" font-family="Consolas, monospace" font-size="11.5" fill="#dcd6e8">- Exploit development for AI application attack surfaces</text><text x="60" y="184" font-family="Consolas, monospace" font-size="11.5" fill="#dcd6e8">- CompTIA Security+ exam prep</text><text x="40" y="218" font-family="Consolas, monospace" font-size="13" fill="#8B5CF6">building:</text><text x="60" y="240" font-family="Consolas, monospace" font-size="11.5" fill="#dcd6e8">- AWAP-AI v2 : expanding AI-driven vulnerability triage engine</text><text x="60" y="262" font-family="Consolas, monospace" font-size="11.5" fill="#dcd6e8">- New Sigma detection rulesets for the AD SOC lab</text><text x="40" y="296" font-family="Consolas, monospace" font-size="13" fill="#8B5CF6">open_to:</text><text x="60" y="318" font-family="Consolas, monospace" font-size="11.5" fill="#dcd6e8">- Offensive Security / Red Team internships</text><text x="60" y="340" font-family="Consolas, monospace" font-size="11.5" fill="#dcd6e8">- AI & LLM Security research roles</text></svg>
