<svg width="780" height="430" viewBox="0 0 780 430" xmlns="http://www.w3.org/2000/svg">
  <defs>
    <linearGradient id="bgGradcp" x1="0" y1="0" x2="1" y2="1">
      <stop offset="0%" stop-color="#08070c"/>
      <stop offset="100%" stop-color="#12081f"/>
    </linearGradient>
    <linearGradient id="frameGradcp" x1="0" y1="0" x2="1" y2="1">
      <stop offset="0%" stop-color="#39FF88"/>
      <stop offset="50%" stop-color="#8B5CF6"/>
      <stop offset="100%" stop-color="#E879F9"/>
    </linearGradient>
    <linearGradient id="accentGradcp" x1="0" y1="0" x2="1" y2="0">
      <stop offset="0%" stop-color="#39FF88"/>
      <stop offset="100%" stop-color="#8B5CF6"/>
    </linearGradient>
    <linearGradient id="glassFillcp" x1="0" y1="0" x2="0" y2="1">
      <stop offset="0%" stop-color="#151020"/>
      <stop offset="100%" stop-color="#0e0a17"/>
    </linearGradient>
    <filter id="softGlowcp" x="-80%" y="-80%" width="260%" height="260%">
      <feGaussianBlur stdDeviation="2.6" result="b"/>
      <feMerge><feMergeNode in="b"/><feMergeNode in="SourceGraphic"/></feMerge>
    </filter>
    <filter id="cardShadowcp" x="-20%" y="-20%" width="140%" height="140%">
      <feDropShadow dx="0" dy="4" stdDeviation="6" flood-color="#000000" flood-opacity="0.4"/>
    </filter>
    <clipPath id="clipOutercp">
      <rect x="1" y="1" width="778" height="430" rx="16"/>
    </clipPath>
    
  </defs>
  <rect x="1" y="1" width="778" height="428" rx="16" fill="url(#bgGradcp)" stroke="url(#frameGradcp)" stroke-opacity="0.4" stroke-width="1.2"/>
  <rect x="0" y="0" width="780" height="40" rx="16" fill="#0d0b14"/>
  <rect x="0" y="26" width="780" height="14" fill="#0d0b14"/>
  <circle cx="26" cy="20" r="6" fill="#FF5F56"/>
  <circle cx="46" cy="20" r="6" fill="#FFBD2E"/>
  <circle cx="66" cy="20" r="6" fill="#27C93F"/>
  <text x="390.0" y="25" text-anchor="middle" font-family="Consolas,'Courier New',monospace" font-size="13" fill="#6b7280">process.yaml</text>
  <path d="M14,36 L14,14 L36,14" stroke="#8B5CF6" stroke-width="2" fill="none" opacity="0.55"/>
  <path d="M766,36 L766,14 L744,14" stroke="#8B5CF6" stroke-width="2" fill="none" opacity="0.55"/>
  <path d="M14,394 L14,416 L36,416" stroke="#8B5CF6" stroke-width="2" fill="none" opacity="0.55"/>
  <path d="M766,394 L766,416 L744,416" stroke="#8B5CF6" stroke-width="2" fill="none" opacity="0.55"/>
<text x="34" y="90" font-family="Consolas,monospace" font-size="18" font-weight="bold" fill="#39FF88" filter="url(#softGlowcp)">0x08 // CURRENT PROCESS</text>
  <line x1="34" y1="104" x2="746" y2="104" stroke="url(#accentGradcp)" stroke-opacity="0.35" stroke-width="1.2"/>
<rect x="34" y="122" width="712" height="106" rx="12" fill="url(#glassFillcp)" stroke="#ffffff" stroke-opacity="0.08" filter="url(#cardShadowcp)"/>
  <rect x="34" y="122" width="4" height="106" rx="2" fill="url(#accentGradcp)"/>
<text x="52" y="148" font-family="Consolas,monospace" font-size="13" font-weight="bold" fill="#8B5CF6" filter="url(#softGlowcp)">learning:</text>
<text x="70" y="172" font-family="Consolas,monospace" font-size="11.5" fill="#39FF88">&#8250;</text>
<text x="84" y="172" font-family="Consolas,monospace" font-size="11.5" fill="#dcd6e8">Advanced AI agent security &amp; MCP threat modeling</text>
<text x="70" y="196" font-family="Consolas,monospace" font-size="11.5" fill="#39FF88">&#8250;</text>
<text x="84" y="196" font-family="Consolas,monospace" font-size="11.5" fill="#dcd6e8">Exploit development for AI application attack surfaces</text>
<text x="70" y="220" font-family="Consolas,monospace" font-size="11.5" fill="#39FF88">&#8250;</text>
<text x="84" y="220" font-family="Consolas,monospace" font-size="11.5" fill="#dcd6e8">CompTIA Security+ exam prep</text>
<rect x="34" y="242" width="712" height="82" rx="12" fill="url(#glassFillcp)" stroke="#ffffff" stroke-opacity="0.08" filter="url(#cardShadowcp)"/>
  <rect x="34" y="242" width="4" height="82" rx="2" fill="url(#accentGradcp)"/>
<text x="52" y="268" font-family="Consolas,monospace" font-size="13" font-weight="bold" fill="#8B5CF6" filter="url(#softGlowcp)">building:</text>
<text x="70" y="292" font-family="Consolas,monospace" font-size="11.5" fill="#39FF88">&#8250;</text>
<text x="84" y="292" font-family="Consolas,monospace" font-size="11.5" fill="#dcd6e8">AWAP-AI v2 : expanding AI-driven vulnerability triage engine</text>
<text x="70" y="316" font-family="Consolas,monospace" font-size="11.5" fill="#39FF88">&#8250;</text>
<text x="84" y="316" font-family="Consolas,monospace" font-size="11.5" fill="#dcd6e8">New Sigma detection rulesets for the AD SOC lab</text>
<rect x="34" y="338" width="712" height="82" rx="12" fill="url(#glassFillcp)" stroke="#ffffff" stroke-opacity="0.08" filter="url(#cardShadowcp)"/>
  <rect x="34" y="338" width="4" height="82" rx="2" fill="url(#accentGradcp)"/>
<text x="52" y="364" font-family="Consolas,monospace" font-size="13" font-weight="bold" fill="#8B5CF6" filter="url(#softGlowcp)">open_to:</text>
<text x="70" y="388" font-family="Consolas,monospace" font-size="11.5" fill="#39FF88">&#8250;</text>
<text x="84" y="388" font-family="Consolas,monospace" font-size="11.5" fill="#dcd6e8">Offensive Security / Red Team internships</text>
<text x="70" y="412" font-family="Consolas,monospace" font-size="11.5" fill="#39FF88">&#8250;</text>
<text x="84" y="412" font-family="Consolas,monospace" font-size="11.5" fill="#dcd6e8">AI &amp; LLM Security research roles</text>
</svg>