<svg width="780" height="420" viewBox="0 0 780 420" xmlns="http://www.w3.org/2000/svg">
  <defs>
    <linearGradient id="bgGradfe" x1="0" y1="0" x2="1" y2="1">
      <stop offset="0%" stop-color="#050308"/>
      <stop offset="55%" stop-color="#0b0716"/>
      <stop offset="100%" stop-color="#140a26"/>
    </linearGradient>
    <linearGradient id="frameGradfe" x1="0" y1="0" x2="1" y2="1">
      <stop offset="0%" stop-color="#39FF88"/>
      <stop offset="50%" stop-color="#8B5CF6"/>
      <stop offset="100%" stop-color="#E879F9"/>
    </linearGradient>
    <linearGradient id="accentGradfe" x1="0" y1="0" x2="1" y2="0">
      <stop offset="0%" stop-color="#39FF88"/>
      <stop offset="100%" stop-color="#8B5CF6"/>
    </linearGradient>
    <linearGradient id="glassFillfe" x1="0" y1="0" x2="0" y2="1">
      <stop offset="0%" stop-color="#ffffff" stop-opacity="0.07"/>
      <stop offset="100%" stop-color="#ffffff" stop-opacity="0.015"/>
    </linearGradient>
    <radialGradient id="blobVfe" cx="50%" cy="50%" r="50%">
      <stop offset="0%" stop-color="#8B5CF6" stop-opacity="0.55"/>
      <stop offset="100%" stop-color="#8B5CF6" stop-opacity="0"/>
    </radialGradient>
    <radialGradient id="blobGfe" cx="50%" cy="50%" r="50%">
      <stop offset="0%" stop-color="#39FF88" stop-opacity="0.45"/>
      <stop offset="100%" stop-color="#39FF88" stop-opacity="0"/>
    </radialGradient>
    <radialGradient id="blobMfe" cx="50%" cy="50%" r="50%">
      <stop offset="0%" stop-color="#E879F9" stop-opacity="0.35"/>
      <stop offset="100%" stop-color="#E879F9" stop-opacity="0"/>
    </radialGradient>
    <filter id="blurBigfe" x="-60%" y="-60%" width="220%" height="220%">
      <feGaussianBlur stdDeviation="38"/>
    </filter>
    <filter id="softGlowfe" x="-80%" y="-80%" width="260%" height="260%">
      <feGaussianBlur stdDeviation="3.2" result="b"/>
      <feMerge><feMergeNode in="b"/><feMergeNode in="SourceGraphic"/></feMerge>
    </filter>
    <filter id="cardShadowfe" x="-20%" y="-20%" width="140%" height="140%">
      <feDropShadow dx="0" dy="6" stdDeviation="10" flood-color="#000000" flood-opacity="0.35"/>
    </filter>
    <clipPath id="clipOuterfe">
      <rect x="1" y="1" width="778" height="420" rx="20"/>
    </clipPath>
    <pattern id="gridfe" width="26" height="26" patternUnits="userSpaceOnUse">
      <path d="M 26 0 L 0 0 0 26" fill="none" stroke="#ffffff" stroke-opacity="0.02" stroke-width="1"/>
    </pattern>
    
  </defs>
  <g clip-path="url(#clipOuterfe)">
    <rect x="1" y="1" width="778" height="418" rx="20" fill="url(#bgGradfe)"/>
    <rect x="1" y="1" width="778" height="418" fill="url(#gridfe)"/>
    <circle cx="90" cy="60" r="150" fill="url(#blobVfe)" filter="url(#blurBigfe)"/>
    <circle cx="690" cy="350" r="170" fill="url(#blobGfe)" filter="url(#blurBigfe)"/>
    <circle cx="640" cy="90" r="120" fill="url(#blobMfe)" filter="url(#blurBigfe)"/>
  </g>
  <rect x="1" y="1" width="778" height="418" rx="20" fill="none" stroke="url(#frameGradfe)" stroke-opacity="0.5" stroke-width="1.4"/>
  <rect x="16" y="14" width="748" height="34" rx="12" fill="#ffffff" fill-opacity="0.045" stroke="#ffffff" stroke-opacity="0.08"/>
  <circle cx="36" cy="31" r="5" fill="#FF5F56" opacity="0.9"/>
  <circle cx="54" cy="31" r="5" fill="#FFBD2E" opacity="0.9"/>
  <circle cx="72" cy="31" r="5" fill="#27C93F" opacity="0.9"/>
  <text x="390.0" y="35.5" text-anchor="middle" font-family="Consolas,'Courier New',monospace" font-size="12" fill="#8a94a3">field-experience.log</text>
<text x="34" y="90" font-family="Consolas,monospace" font-size="18" font-weight="bold" fill="#39FF88" filter="url(#softGlowfe)">0x04 // FIELD EXPERIENCE</text>
  <line x1="34" y1="104" x2="746" y2="104" stroke="url(#accentGradfe)" stroke-opacity="0.35" stroke-width="1.2"/>
<line x1="54" y1="132" x2="54" y2="386" stroke="url(#accentGradfe)" stroke-opacity="0.4" stroke-width="2"/>
<circle cx="54" cy="163.0" r="6" fill="#050308" stroke="url(#accentGradfe)" stroke-width="2.4"/>
<rect x="78" y="122" width="668" height="82" rx="12" fill="url(#glassFillfe)" stroke="#ffffff" stroke-opacity="0.08" filter="url(#cardShadowfe)"/>
  <rect x="78" y="122" width="4" height="82" rx="2" fill="url(#accentGradfe)"/>
<text x="96" y="152" font-family="Consolas,monospace" font-size="13.5" font-weight="bold" fill="#E9D5FF">Independent Security Researcher</text>
<text x="96" y="172" font-family="Consolas,monospace" font-size="11" fill="#A78BFA">HackerOne  ::  Sep 2024 - Present</text>
<text x="96" y="190" font-family="Consolas,monospace" font-size="10.5" fill="#8a94a3">Bug-bounty &amp; vulnerability research on modern SPA / API architectures</text>
<circle cx="54" cy="259.0" r="6" fill="#050308" stroke="url(#accentGradfe)" stroke-width="2.4"/>
<rect x="78" y="218" width="668" height="82" rx="12" fill="url(#glassFillfe)" stroke="#ffffff" stroke-opacity="0.08" filter="url(#cardShadowfe)"/>
  <rect x="78" y="218" width="4" height="82" rx="2" fill="url(#accentGradfe)"/>
<text x="96" y="248" font-family="Consolas,monospace" font-size="13.5" font-weight="bold" fill="#E9D5FF">CTF Player</text>
<text x="96" y="268" font-family="Consolas,monospace" font-size="11" fill="#A78BFA">TryHackMe  ::  Nov 2023 - Present</text>
<text x="96" y="286" font-family="Consolas,monospace" font-size="10.5" fill="#8a94a3">65+ rooms : web exploitation, network attacks, Linux privesc, OSINT</text>
<circle cx="54" cy="355.0" r="6" fill="#050308" stroke="url(#accentGradfe)" stroke-width="2.4"/>
<rect x="78" y="314" width="668" height="82" rx="12" fill="url(#glassFillfe)" stroke="#ffffff" stroke-opacity="0.08" filter="url(#cardShadowfe)"/>
  <rect x="78" y="314" width="4" height="82" rx="2" fill="url(#accentGradfe)"/>
<text x="96" y="344" font-family="Consolas,monospace" font-size="13.5" font-weight="bold" fill="#E9D5FF">Cybersecurity Analyst (Virtual Internship)</text>
<text x="96" y="364" font-family="Consolas,monospace" font-size="11" fill="#A78BFA">Tata Group  ::  2024</text>
<text x="96" y="382" font-family="Consolas,monospace" font-size="10.5" fill="#8a94a3">Simulated real-world SOC analyst workflows</text>
</svg>