<svg width="780" height="420" viewBox="0 0 780 420" xmlns="http://www.w3.org/2000/svg">
  <defs>
    <linearGradient id="bgGradfe" x1="0" y1="0" x2="1" y2="1">
      <stop offset="0%" stop-color="#08070c"/>
      <stop offset="100%" stop-color="#12081f"/>
    </linearGradient>
    <linearGradient id="frameGradfe" x1="0" y1="0" x2="1" y2="1">
      <stop offset="0%" stop-color="#39FF88"/>
      <stop offset="50%" stop-color="#8B5CF6"/>
      <stop offset="100%" stop-color="#E879F9"/>
    </linearGradient>
    <linearGradient id="accentGradfe" x1="0" y1="0" x2="1" y2="0">
      <stop offset="0%" stop-color="#39FF88"/>
      <stop offset="100%" stop-color="#8B5CF6"/>
    </linearGradient>
    <linearGradient id="glassFillfe" x1="0" y1="0" x2="0" y2="1">
      <stop offset="0%" stop-color="#151020"/>
      <stop offset="100%" stop-color="#0e0a17"/>
    </linearGradient>
    <filter id="softGlowfe" x="-80%" y="-80%" width="260%" height="260%">
      <feGaussianBlur stdDeviation="2.6" result="b"/>
      <feMerge><feMergeNode in="b"/><feMergeNode in="SourceGraphic"/></feMerge>
    </filter>
    <filter id="cardShadowfe" x="-20%" y="-20%" width="140%" height="140%">
      <feDropShadow dx="0" dy="4" stdDeviation="6" flood-color="#000000" flood-opacity="0.4"/>
    </filter>
    <clipPath id="clipOuterfe">
      <rect x="1" y="1" width="778" height="420" rx="16"/>
    </clipPath>
    
  </defs>
  <rect x="1" y="1" width="778" height="418" rx="16" fill="url(#bgGradfe)" stroke="url(#frameGradfe)" stroke-opacity="0.4" stroke-width="1.2"/>
  <rect x="0" y="0" width="780" height="40" rx="16" fill="#0d0b14"/>
  <rect x="0" y="26" width="780" height="14" fill="#0d0b14"/>
  <circle cx="26" cy="20" r="6" fill="#FF5F56"/>
  <circle cx="46" cy="20" r="6" fill="#FFBD2E"/>
  <circle cx="66" cy="20" r="6" fill="#27C93F"/>
  <text x="390.0" y="25" text-anchor="middle" font-family="Consolas,'Courier New',monospace" font-size="13" fill="#6b7280">field-experience.log</text>
  <path d="M14,36 L14,14 L36,14" stroke="#8B5CF6" stroke-width="2" fill="none" opacity="0.55"/>
  <path d="M766,36 L766,14 L744,14" stroke="#8B5CF6" stroke-width="2" fill="none" opacity="0.55"/>
  <path d="M14,384 L14,406 L36,406" stroke="#8B5CF6" stroke-width="2" fill="none" opacity="0.55"/>
  <path d="M766,384 L766,406 L744,406" stroke="#8B5CF6" stroke-width="2" fill="none" opacity="0.55"/>
<text x="34" y="90" font-family="Consolas,monospace" font-size="18" font-weight="bold" fill="#39FF88" filter="url(#softGlowfe)">0x04 // FIELD EXPERIENCE</text>
  <line x1="34" y1="104" x2="746" y2="104" stroke="url(#accentGradfe)" stroke-opacity="0.35" stroke-width="1.2"/>
<line x1="54" y1="132" x2="54" y2="386" stroke="url(#accentGradfe)" stroke-opacity="0.4" stroke-width="2"/>
<circle cx="54" cy="163.0" r="6" fill="#050308" stroke="url(#accentGradfe)" stroke-width="2.4"/>
<rect x="78" y="122" width="668" height="82" rx="12" fill="url(#glassFillfe)" stroke="#ffffff" stroke-opacity="0.08" filter="url(#cardShadowfe)"/>
  <rect x="78" y="122" width="4" height="82" rx="2" fill="url(#accentGradfe)"/>
<text x="96" y="152" font-family="Consolas,monospace" font-size="13.5" font-weight="bold" fill="#E9D5FF">Independent Security Researcher</text>
<text x="96" y="172" font-family="Consolas,monospace" font-size="11" fill="#A78BFA">HackerOne  ::  Sep 2024 - Present</text>
<text x="96" y="190" font-family="Consolas,monospace" font-size="10.5" fill="#8a94a3">Bug-bounty &amp; vulnerability research on modern SPA / API architectures</text>
<circle cx="54" cy="259.0" r="6" fill="#050308" stroke="url(#accentGradfe)" stroke-width="2.4"/>
<rect x="78" y="218" width="668" height="82" rx="12" fill="url(#glassFillfe)" stroke="#ffffff" stroke-opacity="0.08" filter="url(#cardShadowfe)"/>
  <rect x="78" y="218" width="4" height="82" rx="2" fill="url(#accentGradfe)"/>
<text x="96" y="248" font-family="Consolas,monospace" font-size="13.5" font-weight="bold" fill="#E9D5FF">CTF Player</text>
<text x="96" y="268" font-family="Consolas,monospace" font-size="11" fill="#A78BFA">TryHackMe  ::  Nov 2023 - Present</text>
<text x="96" y="286" font-family="Consolas,monospace" font-size="10.5" fill="#8a94a3">65+ rooms : web exploitation, network attacks, Linux privesc, OSINT</text>
<circle cx="54" cy="355.0" r="6" fill="#050308" stroke="url(#accentGradfe)" stroke-width="2.4"/>
<rect x="78" y="314" width="668" height="82" rx="12" fill="url(#glassFillfe)" stroke="#ffffff" stroke-opacity="0.08" filter="url(#cardShadowfe)"/>
  <rect x="78" y="314" width="4" height="82" rx="2" fill="url(#accentGradfe)"/>
<text x="96" y="344" font-family="Consolas,monospace" font-size="13.5" font-weight="bold" fill="#E9D5FF">Cybersecurity Analyst (Virtual Internship)</text>
<text x="96" y="364" font-family="Consolas,monospace" font-size="11" fill="#A78BFA">Tata Group  ::  2024</text>
<text x="96" y="382" font-family="Consolas,monospace" font-size="10.5" fill="#8a94a3">Simulated real-world SOC analyst workflows</text>
</svg>