<svg width="780" height="420" viewBox="0 0 780 420" xmlns="http://www.w3.org/2000/svg">
  <defs>
    <linearGradient id="bgGradmd" x1="0" y1="0" x2="1" y2="1">
      <stop offset="0%" stop-color="#050308"/>
      <stop offset="55%" stop-color="#0b0716"/>
      <stop offset="100%" stop-color="#140a26"/>
    </linearGradient>
    <linearGradient id="frameGradmd" x1="0" y1="0" x2="1" y2="1">
      <stop offset="0%" stop-color="#39FF88"/>
      <stop offset="50%" stop-color="#8B5CF6"/>
      <stop offset="100%" stop-color="#E879F9"/>
    </linearGradient>
    <linearGradient id="accentGradmd" x1="0" y1="0" x2="1" y2="0">
      <stop offset="0%" stop-color="#39FF88"/>
      <stop offset="100%" stop-color="#8B5CF6"/>
    </linearGradient>
    <linearGradient id="glassFillmd" x1="0" y1="0" x2="0" y2="1">
      <stop offset="0%" stop-color="#ffffff" stop-opacity="0.07"/>
      <stop offset="100%" stop-color="#ffffff" stop-opacity="0.015"/>
    </linearGradient>
    <radialGradient id="blobVmd" cx="50%" cy="50%" r="50%">
      <stop offset="0%" stop-color="#8B5CF6" stop-opacity="0.55"/>
      <stop offset="100%" stop-color="#8B5CF6" stop-opacity="0"/>
    </radialGradient>
    <radialGradient id="blobGmd" cx="50%" cy="50%" r="50%">
      <stop offset="0%" stop-color="#39FF88" stop-opacity="0.45"/>
      <stop offset="100%" stop-color="#39FF88" stop-opacity="0"/>
    </radialGradient>
    <radialGradient id="blobMmd" cx="50%" cy="50%" r="50%">
      <stop offset="0%" stop-color="#E879F9" stop-opacity="0.35"/>
      <stop offset="100%" stop-color="#E879F9" stop-opacity="0"/>
    </radialGradient>
    <filter id="blurBigmd" x="-60%" y="-60%" width="220%" height="220%">
      <feGaussianBlur stdDeviation="38"/>
    </filter>
    <filter id="softGlowmd" x="-80%" y="-80%" width="260%" height="260%">
      <feGaussianBlur stdDeviation="3.2" result="b"/>
      <feMerge><feMergeNode in="b"/><feMergeNode in="SourceGraphic"/></feMerge>
    </filter>
    <filter id="cardShadowmd" x="-20%" y="-20%" width="140%" height="140%">
      <feDropShadow dx="0" dy="6" stdDeviation="10" flood-color="#000000" flood-opacity="0.35"/>
    </filter>
    <clipPath id="clipOutermd">
      <rect x="1" y="1" width="778" height="420" rx="20"/>
    </clipPath>
    <pattern id="gridmd" width="26" height="26" patternUnits="userSpaceOnUse">
      <path d="M 26 0 L 0 0 0 26" fill="none" stroke="#ffffff" stroke-opacity="0.02" stroke-width="1"/>
    </pattern>
    
  </defs>
  <g clip-path="url(#clipOutermd)">
    <rect x="1" y="1" width="778" height="418" rx="20" fill="url(#bgGradmd)"/>
    <rect x="1" y="1" width="778" height="418" fill="url(#gridmd)"/>
    <circle cx="90" cy="60" r="150" fill="url(#blobVmd)" filter="url(#blurBigmd)"/>
    <circle cx="690" cy="350" r="170" fill="url(#blobGmd)" filter="url(#blurBigmd)"/>
    <circle cx="640" cy="90" r="120" fill="url(#blobMmd)" filter="url(#blurBigmd)"/>
  </g>
  <rect x="1" y="1" width="778" height="418" rx="20" fill="none" stroke="url(#frameGradmd)" stroke-opacity="0.5" stroke-width="1.4"/>
  <rect x="16" y="14" width="748" height="34" rx="12" fill="#ffffff" fill-opacity="0.045" stroke="#ffffff" stroke-opacity="0.08"/>
  <circle cx="36" cy="31" r="5" fill="#FF5F56" opacity="0.9"/>
  <circle cx="54" cy="31" r="5" fill="#FFBD2E" opacity="0.9"/>
  <circle cx="72" cy="31" r="5" fill="#27C93F" opacity="0.9"/>
  <text x="390.0" y="35.5" text-anchor="middle" font-family="Consolas,'Courier New',monospace" font-size="12" fill="#8a94a3">dossier.sh</text>
<text x="34" y="90" font-family="Consolas,monospace" font-size="18" font-weight="bold" fill="#39FF88" filter="url(#softGlowmd)">0x00 // MISSION DOSSIER</text>
  <line x1="34" y1="104" x2="746" y2="104" stroke="url(#accentGradmd)" stroke-opacity="0.35" stroke-width="1.2"/>
<rect x="34" y="122" width="712" height="44" rx="12" fill="url(#glassFillmd)" stroke="#ffffff" stroke-opacity="0.08" filter="url(#cardShadowmd)"/>
  <rect x="34" y="122" width="4" height="44" rx="2" fill="url(#accentGradmd)"/>
<rect x="50" y="133" width="108" height="22" rx="11.0" fill="#8B5CF6" fill-opacity="0.1" stroke="#8B5CF6" stroke-opacity="0.55"/>
  <text x="104.0" y="147.04" text-anchor="middle" font-family="Consolas,monospace" font-size="9.5" fill="#A78BFA">ROLE</text>
<text x="176" y="149" font-family="Consolas,monospace" font-size="12.5" fill="#dcd6e8">Offensive Security / AI-LLM Security / Detection Eng. Intern</text>
<rect x="34" y="178" width="712" height="44" rx="12" fill="url(#glassFillmd)" stroke="#ffffff" stroke-opacity="0.08" filter="url(#cardShadowmd)"/>
  <rect x="34" y="178" width="4" height="44" rx="2" fill="url(#accentGradmd)"/>
<rect x="50" y="189" width="108" height="22" rx="11.0" fill="#8B5CF6" fill-opacity="0.1" stroke="#8B5CF6" stroke-opacity="0.55"/>
  <text x="104.0" y="203.04" text-anchor="middle" font-family="Consolas,monospace" font-size="9.5" fill="#A78BFA">BUILDING</text>
<text x="176" y="205" font-family="Consolas,monospace" font-size="12.5" fill="#dcd6e8">AWAP-AI :: autonomous pentest platform, 7-stage AI pipeline</text>
<rect x="34" y="234" width="712" height="44" rx="12" fill="url(#glassFillmd)" stroke="#ffffff" stroke-opacity="0.08" filter="url(#cardShadowmd)"/>
  <rect x="34" y="234" width="4" height="44" rx="2" fill="url(#accentGradmd)"/>
<rect x="50" y="245" width="108" height="22" rx="11.0" fill="#8B5CF6" fill-opacity="0.1" stroke="#8B5CF6" stroke-opacity="0.55"/>
  <text x="104.0" y="259.04" text-anchor="middle" font-family="Consolas,monospace" font-size="9.5" fill="#A78BFA">HARDENING</text>
<text x="176" y="261" font-family="Consolas,monospace" font-size="12.5" fill="#dcd6e8">5-VM Active Directory red-team &amp; SOC detection lab</text>
<rect x="34" y="290" width="712" height="44" rx="12" fill="url(#glassFillmd)" stroke="#ffffff" stroke-opacity="0.08" filter="url(#cardShadowmd)"/>
  <rect x="34" y="290" width="4" height="44" rx="2" fill="url(#accentGradmd)"/>
<rect x="50" y="301" width="108" height="22" rx="11.0" fill="#8B5CF6" fill-opacity="0.1" stroke="#8B5CF6" stroke-opacity="0.55"/>
  <text x="104.0" y="315.04" text-anchor="middle" font-family="Consolas,monospace" font-size="9.5" fill="#A78BFA">STUDYING</text>
<text x="176" y="317" font-family="Consolas,monospace" font-size="12.5" fill="#dcd6e8">CompTIA Security+ (SY0-701) :: exam Aug 2026</text>
<rect x="34" y="346" width="712" height="44" rx="12" fill="url(#glassFillmd)" stroke="#ffffff" stroke-opacity="0.08" filter="url(#cardShadowmd)"/>
  <rect x="34" y="346" width="4" height="44" rx="2" fill="url(#accentGradmd)"/>
<rect x="50" y="357" width="108" height="22" rx="11.0" fill="#8B5CF6" fill-opacity="0.1" stroke="#8B5CF6" stroke-opacity="0.55"/>
  <text x="104.0" y="371.04" text-anchor="middle" font-family="Consolas,monospace" font-size="9.5" fill="#A78BFA">CERTIFIED</text>
<text x="176" y="373" font-family="Consolas,monospace" font-size="12.5" fill="#dcd6e8">LLM Security Expert (CLLMSE) :: prompt injection, RAG, MCP</text>
<rect x="34" y="402" width="712" height="44" rx="12" fill="url(#glassFillmd)" stroke="#ffffff" stroke-opacity="0.08" filter="url(#cardShadowmd)"/>
  <rect x="34" y="402" width="4" height="44" rx="2" fill="url(#accentGradmd)"/>
<rect x="50" y="413" width="108" height="22" rx="11.0" fill="#8B5CF6" fill-opacity="0.1" stroke="#8B5CF6" stroke-opacity="0.55"/>
  <text x="104.0" y="427.04" text-anchor="middle" font-family="Consolas,monospace" font-size="9.5" fill="#A78BFA">VERIFIED</text>
<text x="176" y="429" font-family="Consolas,monospace" font-size="12.5" fill="#dcd6e8">TryHackMe Top 10% (65+ rooms)  |  HackerOne researcher since 2024</text>
</svg>