<svg width="780" height="420" viewBox="0 0 780 420" xmlns="http://www.w3.org/2000/svg">
  <defs>
    <linearGradient id="bgGradmd" x1="0" y1="0" x2="1" y2="1">
      <stop offset="0%" stop-color="#08070c"/>
      <stop offset="100%" stop-color="#12081f"/>
    </linearGradient>
    <linearGradient id="frameGradmd" x1="0" y1="0" x2="1" y2="1">
      <stop offset="0%" stop-color="#39FF88"/>
      <stop offset="50%" stop-color="#8B5CF6"/>
      <stop offset="100%" stop-color="#E879F9"/>
    </linearGradient>
    <linearGradient id="accentGradmd" x1="0" y1="0" x2="1" y2="0">
      <stop offset="0%" stop-color="#39FF88"/>
      <stop offset="100%" stop-color="#8B5CF6"/>
    </linearGradient>
    <linearGradient id="glassFillmd" x1="0" y1="0" x2="0" y2="1">
      <stop offset="0%" stop-color="#151020"/>
      <stop offset="100%" stop-color="#0e0a17"/>
    </linearGradient>
    <filter id="softGlowmd" x="-80%" y="-80%" width="260%" height="260%">
      <feGaussianBlur stdDeviation="2.6" result="b"/>
      <feMerge><feMergeNode in="b"/><feMergeNode in="SourceGraphic"/></feMerge>
    </filter>
    <filter id="cardShadowmd" x="-20%" y="-20%" width="140%" height="140%">
      <feDropShadow dx="0" dy="4" stdDeviation="6" flood-color="#000000" flood-opacity="0.4"/>
    </filter>
    <clipPath id="clipOutermd">
      <rect x="1" y="1" width="778" height="420" rx="16"/>
    </clipPath>
    
  </defs>
  <rect x="1" y="1" width="778" height="418" rx="16" fill="url(#bgGradmd)" stroke="url(#frameGradmd)" stroke-opacity="0.4" stroke-width="1.2"/>
  <rect x="0" y="0" width="780" height="40" rx="16" fill="#0d0b14"/>
  <rect x="0" y="26" width="780" height="14" fill="#0d0b14"/>
  <circle cx="26" cy="20" r="6" fill="#FF5F56"/>
  <circle cx="46" cy="20" r="6" fill="#FFBD2E"/>
  <circle cx="66" cy="20" r="6" fill="#27C93F"/>
  <text x="390.0" y="25" text-anchor="middle" font-family="Consolas,'Courier New',monospace" font-size="13" fill="#6b7280">dossier.sh</text>
  <path d="M14,36 L14,14 L36,14" stroke="#8B5CF6" stroke-width="2" fill="none" opacity="0.55"/>
  <path d="M766,36 L766,14 L744,14" stroke="#8B5CF6" stroke-width="2" fill="none" opacity="0.55"/>
  <path d="M14,384 L14,406 L36,406" stroke="#8B5CF6" stroke-width="2" fill="none" opacity="0.55"/>
  <path d="M766,384 L766,406 L744,406" stroke="#8B5CF6" stroke-width="2" fill="none" opacity="0.55"/>
<text x="34" y="90" font-family="Consolas,monospace" font-size="18" font-weight="bold" fill="#39FF88" filter="url(#softGlowmd)">0x00 // MISSION DOSSIER</text>
  <line x1="34" y1="104" x2="746" y2="104" stroke="url(#accentGradmd)" stroke-opacity="0.35" stroke-width="1.2"/>
<rect x="34" y="122" width="712" height="44" rx="12" fill="url(#glassFillmd)" stroke="#ffffff" stroke-opacity="0.08" filter="url(#cardShadowmd)"/>
  <rect x="34" y="122" width="4" height="44" rx="2" fill="url(#accentGradmd)"/>
<rect x="50" y="133" width="108" height="22" rx="11.0" fill="#8B5CF6" fill-opacity="0.1" stroke="#8B5CF6" stroke-opacity="0.55"/>
  <text x="104.0" y="147.04" text-anchor="middle" font-family="Consolas,monospace" font-size="9.5" fill="#A78BFA">ROLE</text>
<text x="176" y="149" font-family="Consolas,monospace" font-size="12.5" fill="#dcd6e8">Offensive Security / AI-LLM Security / Detection Eng. Intern</text>
<rect x="34" y="178" width="712" height="44" rx="12" fill="url(#glassFillmd)" stroke="#ffffff" stroke-opacity="0.08" filter="url(#cardShadowmd)"/>
  <rect x="34" y="178" width="4" height="44" rx="2" fill="url(#accentGradmd)"/>
<rect x="50" y="189" width="108" height="22" rx="11.0" fill="#8B5CF6" fill-opacity="0.1" stroke="#8B5CF6" stroke-opacity="0.55"/>
  <text x="104.0" y="203.04" text-anchor="middle" font-family="Consolas,monospace" font-size="9.5" fill="#A78BFA">BUILDING</text>
<text x="176" y="205" font-family="Consolas,monospace" font-size="12.5" fill="#dcd6e8">AWAP-AI :: autonomous pentest platform, 7-stage AI pipeline</text>
<rect x="34" y="234" width="712" height="44" rx="12" fill="url(#glassFillmd)" stroke="#ffffff" stroke-opacity="0.08" filter="url(#cardShadowmd)"/>
  <rect x="34" y="234" width="4" height="44" rx="2" fill="url(#accentGradmd)"/>
<rect x="50" y="245" width="108" height="22" rx="11.0" fill="#8B5CF6" fill-opacity="0.1" stroke="#8B5CF6" stroke-opacity="0.55"/>
  <text x="104.0" y="259.04" text-anchor="middle" font-family="Consolas,monospace" font-size="9.5" fill="#A78BFA">HARDENING</text>
<text x="176" y="261" font-family="Consolas,monospace" font-size="12.5" fill="#dcd6e8">5-VM Active Directory red-team &amp; SOC detection lab</text>
<rect x="34" y="290" width="712" height="44" rx="12" fill="url(#glassFillmd)" stroke="#ffffff" stroke-opacity="0.08" filter="url(#cardShadowmd)"/>
  <rect x="34" y="290" width="4" height="44" rx="2" fill="url(#accentGradmd)"/>
<rect x="50" y="301" width="108" height="22" rx="11.0" fill="#8B5CF6" fill-opacity="0.1" stroke="#8B5CF6" stroke-opacity="0.55"/>
  <text x="104.0" y="315.04" text-anchor="middle" font-family="Consolas,monospace" font-size="9.5" fill="#A78BFA">STUDYING</text>
<text x="176" y="317" font-family="Consolas,monospace" font-size="12.5" fill="#dcd6e8">CompTIA Security+ (SY0-701) :: exam Aug 2026</text>
<rect x="34" y="346" width="712" height="44" rx="12" fill="url(#glassFillmd)" stroke="#ffffff" stroke-opacity="0.08" filter="url(#cardShadowmd)"/>
  <rect x="34" y="346" width="4" height="44" rx="2" fill="url(#accentGradmd)"/>
<rect x="50" y="357" width="108" height="22" rx="11.0" fill="#8B5CF6" fill-opacity="0.1" stroke="#8B5CF6" stroke-opacity="0.55"/>
  <text x="104.0" y="371.04" text-anchor="middle" font-family="Consolas,monospace" font-size="9.5" fill="#A78BFA">CERTIFIED</text>
<text x="176" y="373" font-family="Consolas,monospace" font-size="12.5" fill="#dcd6e8">LLM Security Expert (CLLMSE) :: prompt injection, RAG, MCP</text>
<rect x="34" y="402" width="712" height="44" rx="12" fill="url(#glassFillmd)" stroke="#ffffff" stroke-opacity="0.08" filter="url(#cardShadowmd)"/>
  <rect x="34" y="402" width="4" height="44" rx="2" fill="url(#accentGradmd)"/>
<rect x="50" y="413" width="108" height="22" rx="11.0" fill="#8B5CF6" fill-opacity="0.1" stroke="#8B5CF6" stroke-opacity="0.55"/>
  <text x="104.0" y="427.04" text-anchor="middle" font-family="Consolas,monospace" font-size="9.5" fill="#A78BFA">VERIFIED</text>
<text x="176" y="429" font-family="Consolas,monospace" font-size="12.5" fill="#dcd6e8">TryHackMe Top 10% (65+ rooms)  |  HackerOne researcher since 2024</text>
</svg>